<?xml version="1.0" encoding="UTF-8"?>
<svg xmlns="http://www.w3.org/2000/svg" x="0px" y="0px" viewBox="0 0 55 100" width="55">

                            <rect data-v-906665da="" fill="rgba(255, 222, 232, 0.5)" class="gum" rx="5" ry="5"
                                width="55" height="70"></rect>
                            <g data-v-906665da="" title="" class="tooth-wrap">
                                <!----><!----><!----><!----><!----><!----><!----><!----><!----><!----><!----><!----><!----><!----><!----><!----><!----><!----><!----><!----><!----><!----><!----><!----><!----><!----><!----><!----><!----><!---->
                                <g>
                                    <path data-v-906665da=""
                                        d="M4.27064 49.5937C3.18138 58.2943 2.92588 59.0071 1.90386 67.2505C-0.0057013 82.3656 0.15567 84.9879 2.05178 86.9378C3.9479 88.8877 6.93327 89.2508 12.8099 89.8962C14.5581 90.098 13.7109 89.8962 24.0655 89.7483C27.9384 89.7483 29.0142 89.7483 30.1304 88.8608C31.2466 87.9732 32.2013 86.5747 32.3493 80.2812C32.4203 75.7054 32.0419 71.1337 31.2197 66.6319C29.8749 58.1061 29.7135 59.0205 29.2966 55.3762C28.436 47.8456 29.458 47.1866 28.557 40.5839C27.8865 36.4923 26.9476 32.4493 25.7465 28.481C24.7609 24.2955 23.471 20.1875 21.887 16.1899C19.1975 10.0309 18.3637 10.9319 14.7867 3.15915C13.5629 0.469625 12.8338 0.432731 12 0.499969C11.1662 0.567208 10.6314 1.11511 9.46142 8.80714C7.98218 17.9784 7.22911 24.2046 7.22911 24.2046C6.70466 28.602 6.70466 28.992 5.88435 35.9041C5.48092 39.4946 4.90268 44.5374 4.27064 49.5937Z"
                                        fill="#DEE1E9"></path>
                                    <path data-v-906665da=""
                                        d="M32.3464 80.2837C32.1985 86.5772 31.1227 88.0968 30.1276 88.8633C29.1325 89.6298 27.9356 89.7105 24.0493 89.7508C13.7081 89.8853 14.5553 90.1005 12.8071 89.8987C6.87667 89.2533 3.9182 88.9171 2.04898 86.9403C0.179761 84.9635 -0.00850505 82.3681 1.90106 67.253C2.51965 62.3446 2.85584 60.0988 3.24582 57.2748L5.28985 54.0878C6.45996 51.6178 8.45162 49.6309 10.9244 48.4667C13.5492 47.3565 16.4797 47.1996 19.2081 48.0229C20.774 48.3899 22.2688 49.0123 23.6324 49.8652L29.2535 55.3518C29.6704 58.9961 29.8183 58.0414 31.1765 66.6075C32.0072 71.1178 32.399 75.6979 32.3464 80.2837Z"
                                        fill="white" stroke="#DEE1E9" stroke-miterlimit="10"></path>
                                </g>
                            </g>
                        
</svg>