<?xml version="1.0" encoding="UTF-8"?>
<svg xmlns="http://www.w3.org/2000/svg" x="0px" y="0px" viewBox="0 0 55 100" width="55">

                            <rect data-v-906665da="" fill="rgba(255, 222, 232, 0.5)" class="gum" rx="5" ry="5"
                                width="55" height="70"></rect>
                            <g data-v-906665da="" title="" class="tooth-wrap">
                                <!----><!----><!----><!----><!----><!----><!----><!----><!----><!----><!----><!----><!----><!----><!----><!----><!----><!----><!----><!----><!----><!----><!----><!----><!----><!----><!----><!----><!----><!---->
                                <g>
                                    <path data-v-906665da=""
                                        d="M16.0218 0.68496L12.4717 10.5958C12.4717 10.5958 9.49973 18.0055 9.9435 21.9994C10.3873 25.9934 8.90804 37.3969 7.72465 40.3554C7.13295 41.8347 5.88232 47.5364 4.76617 52.8617C3.65002 58.1869 2.69524 63.1491 2.69524 63.1491C2.69524 63.1491 -0.612874 71.7421 1.01429 76.7716C2.64145 81.801 13.8971 82.1506 13.8971 82.1506C13.8971 82.1506 20.2578 83.0381 23.808 81.2631C27.3582 79.488 25.4352 69.967 25.4352 69.967L23.3642 51.3287L20.8495 34.7343L19.0744 20.6681L18.6307 8.67282L17.5952 1.42456C17.5952 1.42456 16.3311 -0.337059 16.0218 0.68496Z"
                                        fill="#DEE1E9"></path>
                                    <path data-v-906665da=""
                                        d="M23.8113 81.2563C20.2611 83.0314 13.9004 82.1573 13.9004 82.1573C13.9004 82.1573 2.64478 81.848 1.01762 76.7782C-0.609544 71.7085 2.64478 63.2096 2.64478 63.2096C2.64478 63.2096 3.61301 58.2474 4.71571 52.9222L5.03845 51.3757L9.46272 47.5162C10.5599 46.7587 11.8333 46.2957 13.1608 46.1715C14.8724 46.0365 16.5825 46.4511 18.0423 47.3548C18.0423 47.3548 23.1524 50.0444 23.4213 52.0077L25.425 69.9737C25.425 69.9737 27.3749 79.4812 23.8113 81.2563Z"
                                        fill="white" stroke="#DEE1E9" stroke-miterlimit="10"></path>
                                </g>
                            </g>
                        
</svg>