<?xml version="1.0" encoding="UTF-8"?>
<svg xmlns="http://www.w3.org/2000/svg" x="0px" y="0px" viewBox="0 0 55 100" width="55">

                            <rect data-v-906665da="" fill="rgba(255, 222, 232, 0.5)" class="gum" rx="5" ry="5"
                                width="55" height="70"></rect>
                            <g data-v-906665da="" title="" class="tooth-wrap">
                                <!----><!----><!----><!----><!----><!----><!----><!----><!----><!----><!----><!----><!----><!----><!----><!----><!----><!----><!----><!----><!----><!----><!----><!----><!----><!----><!----><!----><!----><!---->
                                <g>
                                    <path data-v-906665da=""
                                        d="M17.1066 20.5941C16.8646 21.6431 16.5149 23.1895 16.0712 25.0319C15.3047 28.2996 13.9061 34.2031 11.0418 45.015C8.35224 55.3159 7.00748 60.4663 6.45613 61.7438C5.31308 64.4334 4.45243 67.1229 2.74459 72.5019C1.68222 75.8907 1.05019 78.1499 2.00497 80.5033C2.61011 81.9556 3.34973 82.3725 5.86443 84.5375C12.5882 90.3469 12.7496 92.4313 15.7753 92.8213C17.9516 92.9578 20.1192 92.4428 22.0016 91.342C23.5948 90.4219 25.0828 89.3307 26.4393 88.0877C29.5457 85.5461 31.1056 84.2417 31.8183 82.9104C32.1142 82.3187 32.6521 81.0412 32.41 76.5362C32.1674 72.7907 31.5731 69.0762 30.6349 65.4419C30.3122 64.0972 28.4564 56.4186 28.4161 56.2572C27.152 50.8782 27.5285 41.0883 27.5285 38.4929C27.5285 28.5013 27.8378 26.3901 27.2327 20.7286C26.9165 17.5825 26.3727 14.4635 25.6055 11.396C24.7772 8.38723 23.7896 5.42458 22.6471 2.52056C22.0554 0.933738 21.6788 0.00585938 21.1678 0.00585938C19.9441 0.00585938 19.0162 5.21007 18.7876 6.4876C18.1018 10.3874 18.4514 12.0549 17.7521 17.0305C17.4966 18.577 17.268 19.8142 17.1066 20.5941Z"
                                        fill="#DEE1E9"></path>
                                    <path data-v-906665da=""
                                        d="M31.2915 83.8626C30.6326 85.2073 29.0592 86.5521 25.9125 89.0533C24.5484 90.2929 23.0562 91.3838 21.4613 92.3077C19.5796 93.3976 17.4196 93.9118 15.2485 93.7869C12.2228 93.3835 12.0615 91.3125 5.32421 85.4897C2.87675 83.3784 2.08334 82.9481 1.47819 81.4554C0.509965 79.1156 1.142 76.8429 2.21781 73.4676C3.92566 68.0885 4.77286 65.399 5.9159 62.7095C6.13107 62.1985 6.4807 61.0285 7.00516 59.1459L9.38539 57.2497C10.3684 55.8509 11.6922 54.7262 13.2314 53.982C15.0279 53.1339 17.032 52.8255 19.0004 53.0944C19.0004 53.0944 22.6716 52.301 28.7499 60.8268C29.2879 63.0726 29.9199 65.6545 30.0947 66.4076C31.0318 70.0466 31.626 73.7654 31.8698 77.5153C32.1387 81.9934 31.5874 83.2709 31.2915 83.8626Z"
                                        fill="white" stroke="#DEE1E9" stroke-miterlimit="10"></path>
                                </g>
                            </g>
                        
</svg>