<?xml version="1.0" encoding="UTF-8"?>
<svg xmlns="http://www.w3.org/2000/svg" x="0px" y="0px" viewBox="0 0 55 100" width="55">

                            <rect data-v-906665da="" fill="rgba(255, 222, 232, 0.5)" class="gum" rx="5" ry="5"
                                width="55" height="70"></rect>
                            <g data-v-906665da="" title="" class="tooth-wrap">
                                <!----><!----><!----><!----><!----><!----><!----><!----><!----><!----><!----><!----><!----><!----><!----><!----><!----><!----><!----><!----><!----><!----><!----><!----><!----><!----><!----><!----><!----><!---->
                                <g>
                                    <path data-v-906665da=""
                                        d="M5.63253 52.1752C5.17531 53.7754 4.6643 55.3891 3.80366 58.5762C2.76819 62.3819 2.24373 64.2915 1.93444 65.9455C0.96621 71.217 0.213144 75.2378 2.37821 78.2366C3.56579 79.503 4.92353 80.5982 6.41249 81.491C8.15871 82.7094 9.99258 83.7971 11.8991 84.7453C13.0689 85.522 14.3731 86.0738 15.7451 86.3724C17.6993 86.2315 19.5373 85.3913 20.9225 84.0057C22.5362 82.7416 22.3345 82.365 24.3247 80.6034C26.6108 78.5863 27.1891 78.788 28.0363 77.6449C29.0448 76.3002 29.0179 74.5251 28.9238 71.1228C29.0116 67.9999 28.5097 64.8885 27.4446 61.9516C26.3419 59.1948 25.7367 59.4234 24.755 56.9087C23.5716 53.8427 23.8003 51.6507 23.7061 47.8854C23.5711 44.068 23.2254 40.261 22.6707 36.4818C21.7024 29.5966 20.6535 30.4842 19.4163 23.3031C17.9236 14.5756 17.1706 10.2186 17.3454 7.60977C17.4126 6.6281 17.6681 3.65619 15.8662 1.84076C15.7317 1.70628 14.629 0.617015 13.9432 0.92631C13.0153 1.34319 13.9432 3.83099 12.9077 7.65012C12.6387 8.68558 12.2219 10.2186 11.4285 10.3396C10.635 10.4607 9.85508 8.43007 9.06167 8.5511C8.26826 8.67213 7.81104 11.9668 7.71691 13.1502C7.42751 16.3981 7.42751 19.6653 7.71691 22.9132C8.59741 28.4443 8.79613 34.0625 8.30861 39.642C7.76076 43.8859 6.86574 48.0776 5.63253 52.1752Z"
                                        fill="#DEE1E9"></path>
                                    <path data-v-906665da=""
                                        d="M28.0437 77.6316C27.1965 78.7881 26.6182 78.5864 24.3456 80.5901C22.3553 82.3517 22.5436 82.7282 20.9299 84.0057C19.5406 85.3854 17.7049 86.2246 15.7525 86.3725C14.3826 86.0674 13.0795 85.5161 11.9065 84.7454C10.0048 83.8013 8.17548 82.718 6.43335 81.5045C4.9417 80.6102 3.58357 79.5102 2.39906 78.2367C0.247444 75.2379 0.987063 71.2305 1.95529 65.9591C2.26459 64.2915 2.78904 62.3954 3.82451 58.5763C3.82451 58.5763 3.82451 58.4687 3.82451 58.4015C4.57758 56.6264 9.60698 54.1117 9.60698 54.1117C11.4617 53.0896 13.5548 52.579 15.6719 52.6325C17.5844 52.7344 19.4539 53.2384 21.1585 54.1117C22.3037 54.6364 23.39 55.281 24.3994 56.0347C24.4935 56.3171 24.5876 56.613 24.7086 56.9223C25.6634 59.437 26.282 59.1949 27.3982 61.9517C28.4635 64.8932 28.9653 68.0091 28.8774 71.1364C29.0119 74.5252 29.0119 76.2465 28.0437 77.6316Z"
                                        fill="white" stroke="#DEE1E9" stroke-miterlimit="10"></path>
                                </g>
                            </g>
                        
</svg>