<?xml version="1.0" encoding="UTF-8"?>
<svg xmlns="http://www.w3.org/2000/svg" x="0px" y="0px" viewBox="0 0 55 100" width="55">

                            <rect data-v-906665da="" fill="rgba(255, 222, 232, 0.5)" class="gum" rx="5" ry="5"
                                width="55" height="70"></rect>
                            <g data-v-906665da="" title="" class="tooth-wrap">
                                <!----><!----><!----><!----><!----><!----><!----><!----><!----><!----><!----><!----><!----><!----><!----><!----><!----><!----><!----><!----><!----><!----><!----><!----><!----><!----><!----><!----><!----><!---->
                                <g>
                                    <path data-v-906665da=""
                                        d="M5.58228 2.35681C3.00034 8.48892 4.39889 20.269 4.39889 20.269C5.44721 28.5312 5.34765 36.8987 4.10304 45.1337C3.4979 48.7914 3.00034 52.4626 2.32796 56.0935C1.41378 59.7205 1.11378 63.475 1.44041 67.2012C1.89763 71.1682 2.98689 72.5802 3.65927 73.2661C4.33165 73.9519 4.72163 73.9384 7.94906 75.9556C11.1765 77.9727 11.1227 78.2148 12.2388 78.4703C14.064 78.8372 15.9595 78.5766 17.6179 77.7307C19.5676 76.7741 21.2082 75.2874 22.3514 73.4409C23.7812 71.4222 24.7876 69.135 25.3099 66.7171C25.9481 63.7327 25.8975 60.6422 25.162 57.6803C24.5031 54.6142 23.6828 53.646 22.3514 50.2841C21.6791 48.5763 21.2084 47.0836 19.393 39.1764C18.0482 33.0174 17.0396 28.9293 15.6949 22.2996C14.8208 18.0771 13.2474 13.989 12.723 9.71266C12.5616 8.3679 12.1313 4.33361 9.61656 1.8727C9.18624 1.44237 8.12388 0.433816 7.10186 0.689321C6.07984 0.944825 5.7302 1.99373 5.58228 2.35681Z"
                                        fill="#DEE1E9"></path>
                                    <path data-v-906665da=""
                                        d="M25.3285 66.719C24.8062 69.137 23.7998 71.4242 22.37 73.4429C21.2229 75.2861 19.5833 76.7719 17.6365 77.7326C15.9771 78.5755 14.0826 78.836 12.2574 78.4723C11.1278 78.2168 11.0606 77.8806 7.95418 75.9576C4.84779 74.0346 4.45781 74.1018 3.6644 73.268C2.87099 72.4343 1.91621 71.1702 1.44554 67.2032C1.1257 63.477 1.42561 59.7235 2.33308 56.0954C2.53031 55.0017 2.71858 53.9124 2.89788 52.8277L7.36249 49.143C8.85655 47.5987 10.8567 46.6439 12.997 46.4535C14.0933 46.3762 15.1941 46.5132 16.2379 46.8569L22.3162 50.313C23.661 53.6749 24.4679 54.6431 25.1268 57.7092C25.8759 60.6584 25.9449 63.7393 25.3285 66.719Z"
                                        fill="white" stroke="#DEE1E9" stroke-miterlimit="10"></path>
                                </g>
                            </g>
                        
</svg>