<?xml version="1.0" encoding="UTF-8"?>
<svg xmlns="http://www.w3.org/2000/svg" x="0px" y="0px" viewBox="0 0 55 100" width="55">

                            <rect data-v-906665da="" fill="rgba(255, 222, 232, 0.5)" class="gum" rx="5" ry="5"
                                width="55" height="70"></rect>
                            <g data-v-906665da="" title="" class="tooth-wrap">
                                <!----><!----><!----><!----><!----><!----><!----><!----><!----><!----><!----><!----><!----><!----><!----><!----><!----><!----><!----><!----><!----><!----><!----><!----><!----><!----><!----><!----><!----><!---->
                                <g>
                                    <path data-v-906665da=""
                                        d="M28.3804 23.4207L27.7887 25.3437C27.7887 27.307 27.7215 29.5393 27.6408 32.0675C27.6121 33.8979 27.3592 35.7179 26.8877 37.4869C26.5112 38.8316 26.0405 40.5395 25.2606 40.5933C24.8303 40.5933 24.4806 40.1629 23.0417 37.4869C21.5087 34.5822 20.527 32.5919 20.527 32.5919C19.0881 29.5931 19.115 29.499 18.604 28.5576C17.7374 27.0127 16.695 25.5732 15.4976 24.2679L13.1308 20.758C13.978 20.5025 13.6418 16.7237 13.2788 12.3129C12.9829 8.87034 12.6064 7.04147 13.2788 4.32506C13.467 3.57199 14.247 0.371457 15.4976 0.290771C16.412 0.290771 17.0306 1.91794 18.8999 5.7774C19.895 7.82144 21.0246 9.81168 22.0063 11.8423C25.7985 19.6957 27.6946 23.6089 28.3804 23.4207Z"
                                        fill="#C7CAD5"></path>
                                    <path data-v-906665da=""
                                        d="M41.3634 50.0719C40.8369 51.2893 40.7328 52.6479 41.0676 53.9313C39.1446 52.7614 35.3792 53.4338 35.3792 53.4338C34.6396 53.5817 33.4966 53.8238 32.1249 54.1734C30.1321 54.8181 28.1079 55.3612 26.06 55.8006C24.1908 56.0292 24.4732 55.6257 20.4255 55.6526C18.7929 55.6159 17.1602 55.7148 15.544 55.9485C13.9205 56.217 12.3326 56.6681 10.8105 57.2932C10.8105 57.2932 7.27373 57.6832 6.88375 59.1087C7.81091 54.8509 8.43109 50.5321 8.73952 46.1855C9.1295 41.2233 9.33122 38.5204 8.44367 34.9433C7.67286 32.5264 6.7751 30.1518 5.75415 27.8295C4.20768 23.9028 3.226 21.4419 2.05606 18.2145C1.54505 16.7756 -0.633465 10.7779 0.57682 7.45639C0.872668 6.5823 1.26265 6.25955 1.61229 6.11163C2.67465 5.7082 4.03286 6.93193 4.57076 7.45639C6.07471 8.99885 7.1942 10.8739 7.83853 12.9296C9.37156 16.6411 12.0611 20.9175 13.0159 20.6351L15.3826 24.1852C16.5801 25.4906 17.6225 26.9301 18.489 28.475C19 29.376 18.9732 29.4701 20.4121 32.5093C20.4121 32.5093 21.3668 34.4995 22.9402 37.4042C24.3791 40.0937 24.7287 40.5375 25.1591 40.5106C25.939 40.5106 26.4097 38.749 26.7862 37.4042C27.2586 35.613 27.5071 33.77 27.5258 31.9176C27.6065 29.4567 27.6469 27.2244 27.6738 25.1938L28.2655 23.2708C29.032 23.0556 28.642 19.1289 28.4134 16.547C28.1848 13.965 28.1175 11.5041 27.8217 9.00287C27.6603 7.65811 27.5258 6.67644 28.1175 6.19232C28.7092 5.70821 30.6053 6.08473 31.6677 6.93193C33.389 8.2767 33.2411 10.2938 33.8866 13.1447C34.9086 17.6362 36.2802 17.179 38.3243 22.9211C39.2698 25.7647 39.9672 28.6847 40.4086 31.6486C41.0484 34.7235 41.4441 37.8441 41.592 40.9813C41.8206 45.8493 41.9013 48.2699 41.3634 50.0719Z"
                                        fill="#DEE1E9"></path>
                                    <path data-v-906665da=""
                                        d="M48.8737 75.6715C48.0935 77.8912 46.5103 79.7383 44.436 80.8489C42.8321 81.7111 41.0622 82.22 39.2453 82.3415C37.5294 82.6716 35.7621 82.6211 34.0679 82.1936C32.7232 81.8036 32.7232 81.4809 31.1095 80.9968C29.8043 80.588 28.4427 80.3883 27.0752 80.4051C25.3404 80.4858 24.8967 81.0371 22.1802 82.0457C19.0469 83.2022 17.1105 83.9149 14.7841 83.5249C13.3267 83.2247 11.9508 82.6148 10.7498 81.7364C9.05774 80.7023 7.63396 79.2832 6.59445 77.5945C6.15068 76.828 5.02108 74.6495 5.24969 69.6066C5.4998 66.5361 6.09987 63.5042 7.03823 60.5698C7.22649 59.8437 7.38786 59.1309 7.53579 58.4317C7.92577 57.0062 11.4625 56.6162 11.4625 56.6162C12.9846 55.9911 14.5726 55.54 16.196 55.2715C17.8122 55.0378 19.445 54.9389 21.0775 54.9756C25.1118 54.9756 24.8429 55.3522 26.7121 55.1236C28.7599 54.6842 30.7842 54.1411 32.777 53.4964C34.1217 53.1468 35.2917 52.9047 36.0313 52.7568C36.0313 52.7568 39.7428 52.0172 41.6658 53.2005C42.0985 54.1924 42.699 55.1023 43.4409 55.8901C44.7857 57.5979 45.0815 57.7862 45.6598 58.5796C46.7287 59.9945 47.4933 61.6153 47.9055 63.3401C48.3493 65.0882 48.161 65.3841 48.4972 69.2705C48.8737 74.2326 49.2503 74.3268 48.8737 75.6715Z"
                                        fill="white" stroke="#DEE1E9" stroke-miterlimit="10"></path>
                                </g>
                            </g>
                        
</svg>