<?xml version="1.0" encoding="UTF-8"?>
<svg xmlns="http://www.w3.org/2000/svg" x="0px" y="0px" viewBox="0 0 55 100" width="55">

                            <rect data-v-906665da="" fill="rgba(255, 222, 232, 0.5)" class="gum" rx="5" ry="5"
                                width="55" height="70"></rect>
                            <g data-v-906665da="" title="" class="tooth-wrap">
                                <!----><!----><!----><!----><!----><!----><!----><!----><!----><!----><!----><!----><!----><!----><!----><!----><!----><!----><!----><!----><!----><!----><!----><!----><!----><!----><!----><!----><!----><!---->
                                <g>
                                    <path data-v-906665da=""
                                        d="M23.2161 20.0478C23.0675 20.9938 21.8648 28.2912 20.108 31.6966C18.1755 35.3453 16.0539 31.6966 16.0539 31.6966L13.8376 18.6559C13.9728 17.5883 15.7296 4.30437 17.1755 4.58816C18.6215 4.87195 19.135 4.04761 23.2161 20.0478Z"
                                        fill="#C7CAD5"></path>
                                    <path data-v-906665da=""
                                        d="M4.56787 56.6202C4.68499 53.9895 4.82463 51.3228 4.9868 48.6201C5.29311 43.3768 5.68951 38.2686 6.176 33.2956C6.86274 27.8422 7.11128 22.3426 6.91925 16.8495C6.68602 12.686 7.14263 8.51254 8.27062 4.49797C8.27062 4.49797 9.98686 1.79523 11.1761 5.47095C12.1184 8.96657 12.8361 12.5189 13.3247 16.1062L15.9329 31.5118C15.9329 31.5118 18.0951 35.0794 19.987 31.4307C21.8789 27.782 23.1086 19.6738 23.1086 19.6738C23.1086 19.6738 24.0005 10.2142 22.7438 6.16014C21.487 2.10604 24.2303 1.02494 24.2303 1.02494C24.2303 1.02494 27.7168 -1.56968 31.8114 10.1061C35.9061 21.782 35.1628 28.6739 35.1628 28.6739C35.1628 28.6739 34.0817 39.4173 35.1628 42.093C36.5421 45.2483 37.527 48.5616 38.0953 51.958"
                                        fill="#DEE1E9"></path>
                                    <path data-v-906665da=""
                                        d="M1.25692 75.9854C1.56774 82.5395 8.39215 81.3908 11.0679 80.526C13.7436 79.6611 20.8923 77.4719 24.5815 79.1746C28.2708 80.8773 29.4194 84.1476 37.5276 81.9989C45.6358 79.8503 41.7709 56.9311 41.7709 56.9311C41.7709 56.9311 40.0547 50.1742 31.0546 49.8634C30.2331 49.8428 29.4182 50.0141 28.6746 50.3637C27.9309 50.7132 27.2791 51.2314 26.7707 51.877C25.2842 54.0391 20.7436 54.3365 16.1355 52.6202C11.5273 50.904 7.52727 51.458 6.54077 53.1472C5.96744 54.0203 5.4397 54.9224 4.95967 55.85C4.05612 57.601 3.2618 59.4063 2.58126 61.2555C1.39172 66.0692 0.945117 71.0366 1.25692 75.9854Z"
                                        fill="white" stroke="#DEE1E9" stroke-linejoin="round"></path>
                                </g>
                            </g>
                        
</svg>