<?xml version="1.0" encoding="UTF-8"?>
<svg xmlns="http://www.w3.org/2000/svg" x="0px" y="0px" viewBox="0 0 55 100" width="55">

                            <rect data-v-906665da="" fill="rgba(255, 222, 232, 0.5)" class="gum" rx="5" ry="5"
                                width="55" height="70"></rect>
                            <g data-v-906665da="" title="Кариес глубокий" class="tooth-wrap">
                                <!----><!----><!----><!----><!----><!----><!----><!----><!----><!----><!----><!----><!----><!----><!----><!----><!----><!----><!----><!---->
                                <g class="caries-deep">
                                    <path data-v-906665da=""
                                        d="M21.3306 7.37957L19.1757 21.0349L14.3543 9.7829C14.2062 2.49095 14.7988 2.49095 14.7988 2.49095C16.8054 -1.49641 18.1387 0.306099 19.472 1.43949C20.8053 2.57289 21.3306 7.37957 21.3306 7.37957Z"
                                        fill="#C7CAD5"></path>
                                    <path data-v-906665da=""
                                        d="M40.287 70.427C40.287 70.427 41.4307 81.6128 29.2625 83.5209C17.0943 85.4289 24.0535 81.3915 15.1788 81.6543C6.30414 81.917 6.08366 79.4558 3.49292 76.9393C2.74004 76.2044 2.15915 75.311 1.79216 74.3235C1.42517 73.336 1.28122 72.279 1.37071 71.2289C1.37071 71.2289 0.764368 61.3428 4.26462 58.3701C6.23524 56.6971 6.80024 53.351 6.92427 50.7516C6.98039 49.5298 6.95276 48.3055 6.84159 47.0875C6.44012 43.1616 6.51415 39.2014 7.06207 35.2933C7.33769 33.3853 8.68818 24.7436 9.11537 19.683C9.25219 18.258 9.1308 16.8198 8.75708 15.4382C8.42989 14.2408 7.90844 13.1057 7.21366 12.0783C6.71386 11.1399 6.40969 10.1092 6.31966 9.04899C6.22963 7.98882 6.35564 6.92135 6.69 5.9116C9.72172 3.69933 14.1177 9.71394 14.1177 9.71394L19.0511 21.1348L21.256 7.30809C21.256 7.30809 21.7108 2.74529 24.2877 3.04947C25.0449 3.1789 25.7433 3.5411 26.2864 4.08602C26.8295 4.63094 27.1905 5.33166 27.3195 6.09134C27.1679 12.8664 28.6975 13.8481 28.6975 13.8481C28.6975 13.8481 36.2768 20.8583 34.9125 34.2425C34.1798 40.6787 34.6993 47.1964 36.4422 53.434C37.2828 56.1993 38.2336 57.9553 38.8676 58.3701C40.4523 59.4348 40.3283 62.7946 40.3283 62.7946L40.287 70.427Z"
                                        fill="#DEE1E9"></path>
                                    <path data-v-906665da=""
                                        d="M40.2594 70.1685C40.2594 70.1685 41.4036 81.5828 29.231 83.5157C17.0585 85.4487 24.0615 81.3429 15.1837 81.5828C6.3059 81.8226 6.08534 79.3253 3.49368 76.7716C2.74054 76.0216 2.15944 75.1099 1.79232 74.1022C1.4252 73.0946 1.2812 72.016 1.37073 70.9445C1.37073 70.9445 0.764168 60.8424 4.26566 57.8089C6.23698 56.1017 5.83057 50.063 7.83057 50.5348L13.9017 52.8566C15.8448 52.7145 17.7726 52.403 19.664 51.9254C23.1103 51.0789 24.3924 50.2182 26.9564 50.063C28.9196 49.9598 30.8822 50.2769 32.7188 50.9942L36.4408 52.8566C37.2817 55.6784 38.2329 57.4844 38.867 57.9077C40.4524 58.9941 40.3283 62.4085 40.3283 62.4085L40.2594 70.1685Z"
                                        fill="white" stroke="#DEE1E9" stroke-linejoin="round"></path>
                                </g><!----><!----><!----><!----><!----><!----><!----><!----><!----><!---->
                            </g>
                        
</svg>