<?xml version="1.0" encoding="UTF-8"?>
<svg xmlns="http://www.w3.org/2000/svg" x="0px" y="0px" viewBox="0 0 55 100" width="55">

                            <rect data-v-906665da="" fill="rgba(255, 222, 232, 0.5)" class="gum" rx="5" ry="5"
                                width="55" height="70"></rect>
                            <g data-v-906665da="" title="" class="tooth-wrap">
                                <!----><!----><!----><!----><!----><!----><!----><!----><!----><!----><!----><!----><!----><!----><!----><!----><!----><!----><!----><!----><!----><!----><!----><!----><!----><!----><!----><!----><!----><!---->
                                <g>
                                    <path data-v-906665da=""
                                        d="M28.5841 49.4608C29.6734 58.1614 29.9289 58.8742 30.9509 67.1175C32.8604 82.2327 32.6991 84.8549 30.803 86.8048C28.9068 88.7547 25.9215 89.1178 20.0449 89.7633C18.2967 89.965 19.1439 89.7633 8.78921 89.6154C4.9163 89.6154 3.84049 89.6154 2.72434 88.7278C1.60818 87.8403 0.653406 86.4417 0.505482 80.1483C0.434475 75.5725 0.812822 71.0008 1.63508 66.4989C2.97984 57.9732 3.14121 58.8876 3.55809 55.2433C4.41874 47.7126 3.39672 47.0537 4.29771 40.4509C4.96826 36.3594 5.90714 32.3164 7.10826 28.3481C8.09384 24.1625 9.38376 20.0546 10.9677 16.0569C13.6572 9.89794 14.491 10.7989 18.0681 3.02621C19.2918 0.33669 20.021 0.299797 20.8547 0.367035C21.6885 0.434273 22.2234 0.982172 23.3933 8.6742C24.8726 17.8455 25.6256 24.0717 25.6256 24.0717C26.1501 28.4691 26.1501 28.8591 26.9704 35.7711C27.3738 39.3616 27.9521 44.4045 28.5841 49.4608Z"
                                        fill="#DEE1E9"></path>
                                    <path data-v-906665da=""
                                        d="M0.508289 80.1508C0.656214 86.4443 1.73202 87.9638 2.72715 88.7304C3.72227 89.4969 4.91911 89.5775 8.80547 89.6179C19.1467 89.7524 18.2995 89.9675 20.0477 89.7658C25.9781 89.1203 28.9365 88.7841 30.8058 86.8073C32.675 84.8305 32.8632 82.2352 30.9537 67.12C30.3351 62.2117 29.9989 59.9659 29.6089 57.1419L27.5649 53.9548C26.3948 51.4848 24.4031 49.4979 21.9303 48.3337C19.3055 47.2236 16.375 47.0666 13.6466 47.89C12.0807 48.257 10.5859 48.8794 9.22234 49.7323L3.60124 55.2189C3.18436 58.8632 3.03644 57.9084 1.67823 66.4746C0.847574 70.9848 0.455765 75.565 0.508289 80.1508Z"
                                        fill="white" stroke="#DEE1E9" stroke-miterlimit="10"></path>
                                </g>
                            </g>
                        
</svg>