<?xml version="1.0" encoding="UTF-8"?>
<svg xmlns="http://www.w3.org/2000/svg" x="0px" y="0px" viewBox="0 0 55 100" width="55">

                            <rect data-v-906665da="" fill="rgba(255, 222, 232, 0.5)" class="gum" rx="5" ry="5"
                                width="55" height="70"></rect>
                            <g data-v-906665da="" title="" class="tooth-wrap">
                                <!----><!----><!----><!----><!----><!----><!----><!----><!----><!----><!----><!----><!----><!----><!----><!----><!----><!----><!----><!----><!----><!----><!----><!----><!----><!----><!----><!----><!----><!---->
                                <g>
                                    <path data-v-906665da=""
                                        d="M10.9359 0.551903L14.4861 10.4628C14.4861 10.4628 17.458 17.8724 17.0143 21.8664C16.5705 25.8603 18.0497 37.2639 19.2331 40.2224C19.8248 41.7016 21.0754 47.4034 22.1916 52.7286C23.3077 58.0539 24.2625 63.0161 24.2625 63.0161C24.2625 63.0161 27.5706 71.6091 25.9435 76.6385C24.3163 81.6679 13.0607 82.0175 13.0607 82.0175C13.0607 82.0175 6.69994 82.9051 3.14977 81.13C-0.400398 79.3549 1.52261 69.834 1.52261 69.834L3.59355 51.1956L6.10825 34.6012L7.88333 20.5351L8.3271 8.53977L9.36257 1.29151C9.36257 1.29151 10.6266 -0.470116 10.9359 0.551903Z"
                                        fill="#DEE1E9"></path>
                                    <path data-v-906665da=""
                                        d="M3.14644 81.1232C6.69662 82.8983 13.0573 82.0242 13.0573 82.0242C13.0573 82.0242 24.313 81.7149 25.9401 76.6452C27.5673 71.5754 24.313 63.0765 24.313 63.0765C24.313 63.0765 23.3448 58.1144 22.2421 52.7891L21.9193 51.2426L17.495 47.3832C16.3978 46.6257 15.1245 46.1626 13.797 46.0384C12.0853 45.9034 10.3753 46.318 8.91547 47.2218C8.91547 47.2218 3.80538 49.9113 3.53642 51.8747L1.53273 69.8407C1.53273 69.8407 -0.417173 79.3481 3.14644 81.1232Z"
                                        fill="white" stroke="#DEE1E9" stroke-miterlimit="10"></path>
                                </g>
                            </g>
                        
</svg>