<?xml version="1.0" encoding="UTF-8"?>
<svg xmlns="http://www.w3.org/2000/svg" x="0px" y="0px" viewBox="0 0 55 100" width="55">

                            <rect data-v-906665da="" fill="rgba(255, 222, 232, 0.5)" class="gum" rx="5" ry="5"
                                width="55" height="70"></rect>
                            <g data-v-906665da="" title="" class="tooth-wrap">
                                <!----><!----><!----><!----><!----><!----><!----><!----><!----><!----><!----><!----><!----><!----><!----><!----><!----><!----><!----><!----><!----><!----><!----><!----><!----><!----><!----><!----><!----><!---->
                                <g>
                                    <path data-v-906665da=""
                                        d="M16.7796 21.4612C17.0217 22.5101 17.3713 24.0565 17.8151 25.8989C18.5816 29.1666 19.9801 35.0701 22.8445 45.882C25.534 56.1829 26.8788 61.3333 27.4301 62.6109C28.5732 65.3004 29.4338 67.9899 31.1416 73.3689C32.204 76.7577 32.836 79.0169 31.8813 81.3703C31.2761 82.8226 30.5365 83.2395 28.0218 85.4045C21.298 91.2139 21.1366 93.2983 18.1109 93.6883C15.9346 93.8248 13.767 93.3098 11.8847 92.209C10.2915 91.2889 8.80344 90.1977 7.44695 88.9547C4.34056 86.4131 2.78063 85.1087 2.06791 83.7774C1.77206 83.1857 1.23416 81.9082 1.47622 77.4032C1.71883 73.6577 2.31314 69.9432 3.2513 66.3089C3.57404 64.9642 5.42981 57.2856 5.47015 57.1242C6.73423 51.7452 6.3577 41.9553 6.3577 39.3599C6.3577 29.3683 6.0484 27.2571 6.65354 21.5956C6.96974 18.4495 7.51355 15.3305 8.28071 12.263C9.10906 9.25424 10.0966 6.29158 11.2392 3.38756C11.8309 1.80074 12.2074 0.872864 12.7184 0.872864C13.9421 0.872864 14.87 6.07708 15.0986 7.3546C15.7845 11.2544 15.4348 12.9219 16.1341 17.8975C16.3896 19.444 16.6182 20.6812 16.7796 21.4612Z"
                                        fill="#DEE1E9"></path>
                                    <path data-v-906665da=""
                                        d="M2.06197 83.767C2.7209 85.1118 4.29427 86.4566 7.44101 88.9578C8.80516 90.1973 10.2973 91.2883 11.8922 92.2122C13.7739 93.302 15.934 93.8163 18.105 93.6914C21.1307 93.288 21.2921 91.217 28.0293 85.3942C30.4768 83.2829 31.2702 82.8526 31.8753 81.3599C32.8436 79.02 32.2115 76.7474 31.1357 73.372C29.4279 67.993 28.5807 65.3035 27.4376 62.6139C27.2224 62.1029 26.8728 60.933 26.3484 59.0503L23.9681 57.1542C22.9851 55.7554 21.6613 54.6307 20.1221 53.8864C18.3256 53.0383 16.3215 52.73 14.3531 52.9989C14.3531 52.9989 10.6819 52.2055 4.60357 60.7313C4.06566 62.977 3.43362 65.559 3.25881 66.312C2.32175 69.9511 1.72747 73.6699 1.48372 77.4198C1.21477 81.8978 1.76612 83.1753 2.06197 83.767Z"
                                        fill="white" stroke="#DEE1E9" stroke-miterlimit="10"></path>
                                </g>
                            </g>
                        
</svg>