<?xml version="1.0" encoding="UTF-8"?>
<svg xmlns="http://www.w3.org/2000/svg" x="0px" y="0px" viewBox="0 0 55 100" width="55">

                            <rect data-v-906665da="" fill="rgba(255, 222, 232, 0.5)" class="gum" rx="5" ry="5"
                                width="55" height="70"></rect>
                            <g data-v-906665da="" title="" class="tooth-wrap">
                                <!----><!----><!----><!----><!----><!----><!----><!----><!----><!----><!----><!----><!----><!----><!----><!----><!----><!----><!----><!----><!----><!----><!----><!----><!----><!----><!----><!----><!----><!---->
                                <g>
                                    <path data-v-906665da=""
                                        d="M24.2454 52.0422C24.7026 53.6424 25.2136 55.2561 26.0743 58.4432C27.1097 62.2489 27.6342 64.1585 27.9435 65.8125C28.9117 71.084 29.6648 75.1048 27.4997 78.1036C26.3121 79.37 24.9544 80.4652 23.4654 81.358C21.7192 82.5764 19.8854 83.6641 17.9788 84.6123C16.8091 85.389 15.5048 85.9408 14.1328 86.2394C12.1786 86.0985 10.3406 85.2583 8.95547 83.8727C7.34175 82.6086 7.54346 82.232 5.55322 80.4704C3.26712 78.4533 2.68888 78.655 1.84168 77.5119C0.833107 76.1672 0.860003 74.3921 0.954136 70.9898C0.866356 67.867 1.3682 64.7555 2.43337 61.8186C3.53608 59.0618 4.14122 59.2904 5.1229 56.7757C6.30629 53.7097 6.07767 51.5177 6.17181 47.7524C6.30683 43.935 6.65251 40.128 7.20727 36.3488C8.1755 29.4636 9.22442 30.3512 10.4616 23.1701C11.9543 14.4426 12.7073 10.0856 12.5325 7.47678C12.4653 6.4951 12.2098 3.52319 14.0118 1.70776C14.1462 1.57329 15.2489 0.484019 15.9348 0.793314C16.8627 1.21019 15.9348 3.698 16.9702 7.51712C17.2392 8.55259 17.6561 10.0856 18.4495 10.2066C19.2429 10.3277 20.0228 8.29708 20.8163 8.41811C21.6097 8.53914 22.0669 11.8338 22.161 13.0172C22.4504 16.2651 22.4504 19.5323 22.161 22.7802C21.2805 28.3113 21.0818 33.9295 21.5693 39.509C22.1172 43.7529 23.0122 47.9446 24.2454 52.0422Z"
                                        fill="#DEE1E9"></path>
                                    <path data-v-906665da=""
                                        d="M1.83427 77.4986C2.68147 78.6551 3.25972 78.4534 5.53236 80.4571C7.52261 82.2187 7.33435 82.5952 8.94806 83.8727C10.3374 85.2524 12.173 86.0916 14.1254 86.2395C15.4953 85.9344 16.7985 85.3831 17.9714 84.6124C19.8731 83.6683 21.7025 82.585 23.4446 81.3715C24.9362 80.4772 26.2944 79.3772 27.4789 78.1037C29.6305 75.1049 28.8909 71.0975 27.9226 65.8261C27.6133 64.1586 27.0889 62.2624 26.0534 58.4433C26.0534 58.4433 26.0534 58.3357 26.0534 58.2685C25.3004 56.4934 20.2709 53.9787 20.2709 53.9787C18.4163 52.9566 16.3231 52.4461 14.2061 52.4995C12.2935 52.6014 10.424 53.1054 8.71945 53.9787C7.57427 54.5034 6.48791 55.148 5.47857 55.9017C5.38444 56.1841 5.29031 56.48 5.16928 56.7893C4.2145 59.304 3.59591 59.0619 2.47976 61.8187C1.41448 64.7602 0.912655 67.8761 1.00052 71.0034C0.866045 74.3922 0.866043 76.1135 1.83427 77.4986Z"
                                        fill="white" stroke="#DEE1E9" stroke-miterlimit="10"></path>
                                </g>
                            </g>
                        
</svg>