<?xml version="1.0" encoding="UTF-8"?>
<svg xmlns="http://www.w3.org/2000/svg" x="0px" y="0px" viewBox="0 0 55 100" width="55">

                            <rect data-v-906665da="" fill="rgba(255, 222, 232, 0.5)" class="gum" rx="5" ry="5"
                                width="55" height="70"></rect>
                            <g data-v-906665da="" title="" class="tooth-wrap">
                                <!----><!----><!----><!----><!----><!----><!----><!----><!----><!----><!----><!----><!----><!----><!----><!----><!----><!----><!----><!----><!----><!----><!----><!----><!----><!----><!----><!----><!----><!---->
                                <g>
                                    <path data-v-906665da=""
                                        d="M21.1714 2.22388C23.7533 8.35599 22.3548 20.1361 22.3548 20.1361C21.3065 28.3983 21.406 36.7658 22.6506 45.0007C23.2558 48.6585 23.7533 52.3297 24.4257 55.9605C25.3399 59.5876 25.6399 63.3421 25.3132 67.0683C24.856 71.0353 23.7668 72.4473 23.0944 73.1331C22.422 73.819 22.032 73.8055 18.8046 75.8226C15.5772 77.8398 15.631 78.0819 14.5148 78.3374C12.6897 78.7043 10.7941 78.4436 9.13577 77.5977C7.18604 76.6412 5.54544 75.1544 4.40221 73.308C2.97243 71.2893 1.96607 69.0021 1.44374 66.5841C0.805593 63.5998 0.85618 60.5092 1.59166 57.5474C2.25059 54.4813 3.0709 53.5131 4.40221 50.1512C5.07459 48.4433 5.54526 46.9506 7.36069 39.0434C8.70545 32.8844 9.71402 28.7964 11.0588 22.1667C11.9329 17.9441 13.5062 13.8561 14.0307 9.57972C14.1921 8.23496 14.6224 4.20068 17.1371 1.73976C17.5674 1.30944 18.6298 0.300882 19.6518 0.556386C20.6738 0.811891 21.0235 1.86079 21.1714 2.22388Z"
                                        fill="#DEE1E9"></path>
                                    <path data-v-906665da=""
                                        d="M1.42517 66.5861C1.94749 69.0041 2.95386 71.2913 4.38364 73.3099C5.53079 75.1531 7.17033 76.639 9.1172 77.5997C10.7765 78.4426 12.671 78.703 14.4962 78.3393C15.6258 78.0838 15.6931 77.7476 18.7995 75.8246C21.9059 73.9016 22.2959 73.9689 23.0893 73.1351C23.8827 72.3014 24.8375 71.0373 25.3081 67.0702C25.628 63.344 25.3281 59.5906 24.4206 55.9625C24.2233 54.8688 24.0351 53.7795 23.8558 52.6947L19.3912 49.0101C17.8971 47.4657 15.8969 46.511 13.7566 46.3206C12.6604 46.2432 11.5596 46.3803 10.5157 46.724L4.43743 50.18C3.09267 53.5419 2.28581 54.5102 1.62688 57.5762C0.877748 60.5254 0.808773 63.6063 1.42517 66.5861Z"
                                        fill="white" stroke="#DEE1E9" stroke-miterlimit="10"></path>
                                </g>
                            </g>
                        
</svg>