<?xml version="1.0" encoding="UTF-8"?>
<svg xmlns="http://www.w3.org/2000/svg" x="0px" y="0px" viewBox="0 0 55 100" width="55">

                            <rect data-v-906665da="" fill="rgba(255, 222, 232, 0.5)" class="gum" rx="5" ry="5"
                                width="55" height="70"></rect>
                            <g data-v-906665da="" title="" class="tooth-wrap">
                                <!----><!----><!----><!----><!----><!----><!----><!----><!----><!----><!----><!----><!----><!----><!----><!----><!----><!----><!----><!----><!----><!----><!----><!----><!----><!----><!----><!----><!----><!---->
                                <g>
                                    <path data-v-906665da=""
                                        d="M21.7749 23.2877L22.3665 25.2107C22.3665 27.174 22.4338 29.4063 22.5145 31.9345C22.5431 33.7649 22.796 35.585 23.2675 37.3539C23.6441 38.6986 24.1147 40.4065 24.8947 40.4603C25.325 40.4603 25.6747 40.0299 27.1136 37.3539C28.6466 34.4492 29.6283 32.4589 29.6283 32.4589C31.0672 29.4601 31.0403 29.366 31.5513 28.4247C32.4179 26.8797 33.4602 25.4402 34.6577 24.1349L37.0244 20.625C36.1772 20.3695 36.5134 16.5907 36.8765 12.1799C37.1724 8.73734 37.5489 6.90848 36.8765 4.19206C36.6883 3.43899 35.9083 0.238462 34.6577 0.157776C33.7432 0.157776 33.1246 1.78494 31.2554 5.6444C30.2603 7.68844 29.1307 9.67868 28.149 11.7093C24.3568 19.5627 22.4607 23.4759 21.7749 23.2877Z"
                                        fill="#C7CAD5"></path>
                                    <path data-v-906665da=""
                                        d="M8.79184 49.9389C9.31833 51.1563 9.42247 52.5149 9.08769 53.7983C11.0107 52.6284 14.776 53.3008 14.776 53.3008C15.5157 53.4487 16.6587 53.6908 18.0304 54.0404C20.0231 54.6851 22.0474 55.2282 24.0952 55.6676C25.9644 55.8962 25.682 55.4927 29.7298 55.5196C31.3623 55.4829 32.9951 55.5818 34.6113 55.8155C36.2347 56.084 37.8227 56.5351 39.3448 57.1602C39.3448 57.1602 42.8815 57.5502 43.2715 58.9757C42.3444 54.7179 41.7242 50.3991 41.4158 46.0525C41.0258 41.0904 40.8241 38.3874 41.7116 34.8103C42.4824 32.3934 43.3802 30.0189 44.4011 27.6965C45.9476 23.7698 46.9293 21.3089 48.0992 18.0815C48.6102 16.6426 50.7887 10.645 49.5785 7.32339C49.2826 6.4493 48.8926 6.12656 48.543 5.97863C47.4806 5.5752 46.1224 6.79894 45.5845 7.32339C44.0806 8.86586 42.9611 10.7409 42.3167 12.7966C40.7837 16.5081 38.0942 20.7845 37.1394 20.5021L34.7726 24.0522C33.5752 25.3576 32.5328 26.7971 31.6662 28.342C31.1552 29.243 31.1821 29.3371 29.7432 32.3763C29.7432 32.3763 28.7884 34.3665 27.2151 37.2712C25.7762 39.9608 25.4265 40.4045 24.9962 40.3776C24.2163 40.3776 23.7456 38.616 23.3691 37.2712C22.8966 35.48 22.6482 33.637 22.6294 31.7846C22.5488 29.3237 22.5084 27.0914 22.4815 25.0608L21.8898 23.1378C21.1233 22.9226 21.5133 18.9959 21.7419 16.414C21.9705 13.832 22.0377 11.3711 22.3336 8.86987C22.495 7.52511 22.6294 6.54344 22.0377 6.05933C21.446 5.57521 19.5499 5.95174 18.4876 6.79894C16.7663 8.1437 16.9142 10.1608 16.2687 13.0117C15.2467 17.5032 13.875 17.046 11.831 22.7881C10.8855 25.6317 10.1881 28.5518 9.74662 31.5157C9.10688 34.5905 8.71119 37.7111 8.56324 40.8483C8.33463 45.7163 8.25394 48.1369 8.79184 49.9389Z"
                                        fill="#DEE1E9"></path>
                                    <path data-v-906665da=""
                                        d="M1.28153 75.5385C2.06174 77.7582 3.64495 79.6053 5.71924 80.7159C7.32319 81.5781 9.09308 82.087 10.91 82.2085C12.6258 82.5386 14.3932 82.4881 16.0873 82.0606C17.4321 81.6706 17.4321 81.3479 19.0458 80.8638C20.351 80.455 21.7126 80.2553 23.0801 80.2721C24.8148 80.3528 25.2586 80.9041 27.975 81.9127C31.1083 83.0692 33.0448 83.7819 35.3712 83.3919C36.8286 83.0917 38.2045 82.4818 39.4055 81.6034C41.0975 80.5694 42.5213 79.1502 43.5608 77.4615C44.0046 76.695 45.1342 74.5165 44.9056 69.4736C44.6555 66.4031 44.0554 63.3712 43.117 60.4369C42.9288 59.7107 42.7674 58.9979 42.6195 58.2987C42.2295 56.8732 38.6928 56.4833 38.6928 56.4833C37.1706 55.8581 35.5827 55.407 33.9592 55.1385C32.3431 54.9048 30.7103 54.8059 29.0777 54.8426C25.0435 54.8426 25.3124 55.2192 23.4432 54.9906C21.3953 54.5512 19.3711 54.0081 17.3783 53.3634C16.0336 53.0138 14.8636 52.7717 14.124 52.6238C14.124 52.6238 10.4125 51.8842 8.48945 53.0675C8.05674 54.0594 7.45625 54.9693 6.71436 55.7571C5.3696 57.4649 5.07375 57.6532 4.49551 58.4466C3.42661 59.8615 2.66201 61.4823 2.24976 63.2071C1.80598 64.9552 1.99426 65.2511 1.65806 69.1375C1.28153 74.0996 0.904995 74.1938 1.28153 75.5385Z"
                                        fill="white" stroke="#DEE1E9" stroke-miterlimit="10"></path>
                                </g>
                            </g>
                        
</svg>