<?xml version="1.0" encoding="UTF-8"?>
<svg xmlns="http://www.w3.org/2000/svg" x="0px" y="0px" viewBox="0 0 55 100" width="55">

                            <rect data-v-906665da="" fill="rgba(255, 222, 232, 0.5)" class="gum" rx="5" ry="5"
                                width="55" height="70"></rect>
                            <g data-v-906665da="" title="" class="tooth-wrap">
                                <!----><!----><!----><!----><!----><!----><!----><!----><!----><!----><!----><!----><!----><!----><!----><!----><!----><!----><!----><!----><!----><!----><!----><!----><!----><!----><!----><!----><!----><!---->
                                <g>
                                    <path data-v-906665da=""
                                        d="M20.2319 19.5854C20.3805 20.5314 21.5832 27.8288 23.34 31.2342C25.2725 34.8829 27.3941 31.2342 27.3941 31.2342L29.6104 18.1935C29.4752 17.1259 27.7184 3.84197 26.2725 4.12576C24.8265 4.40955 24.313 3.58521 20.2319 19.5854Z"
                                        fill="#C7CAD5"></path>
                                    <path data-v-906665da=""
                                        d="M38.8801 56.1578C38.763 53.5271 38.6234 50.8604 38.4612 48.1577C38.1549 42.9144 37.7585 37.8062 37.272 32.8332C36.5853 27.3798 36.3367 21.8802 36.5287 16.3871C36.762 12.2236 36.3054 8.05014 35.1774 4.03556C35.1774 4.03556 33.4611 1.33283 32.2719 5.00855C31.3296 8.50417 30.6119 12.0565 30.1233 15.6438L27.5151 31.0494C27.5151 31.0494 25.3529 34.617 23.461 30.9683C21.5691 27.3196 20.3394 19.2114 20.3394 19.2114C20.3394 19.2114 19.4475 9.75184 20.7042 5.69774C21.961 1.64364 19.2177 0.562539 19.2177 0.562539C19.2177 0.562539 15.7312 -2.03209 11.6366 9.64373C7.54191 21.3195 8.28516 28.2115 8.28516 28.2115C8.28516 28.2115 9.36625 38.9549 8.28516 41.6306C6.90593 44.7859 5.92101 48.0992 5.35269 51.4956"
                                        fill="#DEE1E9"></path>
                                    <path data-v-906665da=""
                                        d="M42.1911 75.523C41.8803 82.0771 35.0559 80.9284 32.3801 80.0636C29.7044 79.1987 22.5557 77.0095 18.8665 78.7122C15.1772 80.4149 14.0286 83.6852 5.92036 81.5365C-2.18784 79.3879 1.67707 56.4687 1.67707 56.4687C1.67707 56.4687 3.39331 49.7118 12.3934 49.401C13.2149 49.3804 14.0298 49.5517 14.7734 49.9013C15.5171 50.2508 16.1689 50.769 16.6773 51.4146C18.1638 53.5767 22.7044 53.8741 27.3125 52.1578C31.9207 50.4416 35.9207 50.9956 36.9072 52.6848C37.4806 53.5579 38.0083 54.46 38.4883 55.3876C39.3919 57.1386 40.1862 58.9439 40.8667 60.7931C42.0563 65.6068 42.5029 70.5742 42.1911 75.523Z"
                                        fill="white" stroke="#DEE1E9" stroke-linejoin="round"></path>
                                </g>
                            </g>
                        
</svg>