<?xml version="1.0" encoding="UTF-8"?>
<svg xmlns="http://www.w3.org/2000/svg" x="0px" y="0px" viewBox="0 0 55 100" width="55">

                            <rect data-v-906665da="" fill="rgba(255, 222, 232, 0.5)" class="gum" rx="5" ry="5"
                                width="55" height="70"></rect>
                            <g data-v-906665da="" title="" class="tooth-wrap">
                                <!----><!----><!----><!----><!----><!----><!----><!----><!----><!----><!----><!----><!----><!----><!----><!----><!----><!----><!----><!----><!----><!----><!----><!----><!----><!----><!----><!----><!----><!---->
                                <g>
                                    <path data-v-906665da=""
                                        d="M20 7.91839L22.1548 21.5737L26.9762 10.3217C27.1244 3.02977 26.5318 3.02977 26.5318 3.02977C24.5251 -0.957587 23.1918 0.844917 21.8585 1.97831C20.5252 3.1117 20 7.91839 20 7.91839Z"
                                        fill="#C7CAD5"></path>
                                    <path data-v-906665da=""
                                        d="M1.04361 70.9658C1.04361 70.9658 -0.10017 82.1516 12.068 84.0597C24.2363 85.9678 17.2771 81.9304 26.1518 82.1931C35.0264 82.4558 35.2469 79.9946 37.8377 77.4782C38.5905 76.7432 39.1714 75.8498 39.5384 74.8623C39.9054 73.8748 40.0493 72.8178 39.9599 71.7677C39.9599 71.7677 40.5662 61.8817 37.0659 58.9089C35.0953 57.2359 34.5303 53.8898 34.4063 51.2904C34.3502 50.0686 34.3778 48.8443 34.489 47.6263C34.8904 43.7004 34.8164 39.7402 34.2685 35.8322C33.9929 33.9241 32.6424 25.2824 32.2152 20.2218C32.0784 18.7968 32.1998 17.3587 32.5735 15.977C32.9007 14.7796 33.4221 13.6445 34.1169 12.6171C34.6167 11.6787 34.9209 10.648 35.0109 9.58781C35.1009 8.52763 34.9749 7.46016 34.6406 6.45042C31.6088 4.23815 27.2129 10.2528 27.2129 10.2528L22.2794 21.6736L20.0745 7.84691C20.0745 7.84691 19.6198 3.2841 17.0428 3.58829C16.2857 3.71772 15.5873 4.07992 15.0442 4.62484C14.5011 5.16976 14.1401 5.87048 14.0111 6.63016C14.1627 13.4052 12.633 14.3869 12.633 14.3869C12.633 14.3869 5.05375 21.3971 6.41803 34.7813C7.15073 41.2175 6.63124 47.7352 4.88839 53.9728C4.04777 56.7381 3.09692 58.4941 2.46301 58.9089C0.87825 59.9736 1.00227 63.3335 1.00227 63.3335L1.04361 70.9658Z"
                                        fill="#DEE1E9"></path>
                                    <path data-v-906665da=""
                                        d="M1.0712 70.7074C1.0712 70.7074 -0.0729904 82.1217 12.0995 84.0547C24.272 85.9876 17.2691 81.8818 26.1469 82.1217C35.0247 82.3616 35.2452 79.8643 37.8369 77.3105C38.59 76.5605 39.1711 75.6488 39.5382 74.6412C39.9054 73.6335 40.0494 72.555 39.9598 71.4834C39.9598 71.4834 40.5664 61.3813 37.0649 58.3478C35.0936 56.6406 35.5 50.6019 33.5 51.0737L27.4289 53.3955C25.4858 53.2535 23.558 52.9419 21.6666 52.4643C18.2203 51.6178 16.9382 50.7571 14.3741 50.6019C12.411 50.4987 10.4484 50.8159 8.61182 51.5331L4.88976 53.3955C4.04884 56.2174 3.09765 58.0233 2.46352 58.4466C0.878201 59.533 1.00227 62.9474 1.00227 62.9474L1.0712 70.7074Z"
                                        fill="white" stroke="#DEE1E9" stroke-linejoin="round"></path>
                                </g>
                            </g>
                        
</svg>