<?xml version="1.0" encoding="UTF-8"?>
<svg xmlns="http://www.w3.org/2000/svg" x="0px" y="0px" viewBox="0 0 55 100" width="55">

                            <rect data-v-906665da="" fill="rgba(255, 222, 232, 0.5)" class="gum" rx="5" ry="5"
                                width="55" height="70"></rect>
                            <g data-v-906665da="" title="" class="tooth-wrap">
                                <!----><!----><!----><!----><!----><!----><!----><!----><!----><!----><!----><!----><!----><!----><!----><!----><!----><!----><!----><!----><!----><!----><!----><!----><!----><!----><!----><!----><!----><!---->
                                <g>
                                    <path data-v-906665da=""
                                        d="M17.3098 33.7698L16.2316 49.7747C16.2316 49.7747 15.0694 59.3805 13.4311 75.1053C11.7928 90.8302 9.60841 84.347 9.60841 84.347L7.18597 72.5569L5.30962 51.399L4.04939 31.3474"
                                        fill="#DEE1E9"></path>
                                    <path data-v-906665da=""
                                        d="M20.9783 2.15195V10.7075L19.578 26.8805C19.3958 29.3277 18.617 31.693 17.3096 33.7697C16.5106 34.9576 15.4213 35.9216 14.145 36.5702C9.0621 39.1187 6.51363 35.072 6.51363 35.072C5.56185 33.8998 4.71825 32.6437 3.99317 31.3193C3.00763 29.596 2.22749 27.7632 1.66875 25.8583C0.0444489 20.2573 1.08064 12.9059 0.744577 4.47638C0.655037 3.76037 0.845324 3.03743 1.27577 2.45829C1.70621 1.87915 2.34358 1.48851 3.055 1.36781C3.055 1.36781 20.9783 1.21378 20.9783 2.15195Z"
                                        fill="white" stroke="#DEE1E9" stroke-linecap="round" stroke-linejoin="round">
                                    </path>
                                </g>
                            </g>
                        
</svg>