<?xml version="1.0" encoding="UTF-8"?>
<svg xmlns="http://www.w3.org/2000/svg" x="0px" y="0px" viewBox="0 0 55 100" width="55">

                            <rect data-v-906665da="" fill="rgba(255, 222, 232, 0.5)" class="gum" rx="5" ry="5"
                                width="55" height="70"></rect>
                            <g data-v-906665da="" title="" class="tooth-wrap">
                                <!----><!----><!----><!----><!----><!----><!----><!----><!----><!----><!----><!----><!----><!----><!----><!----><!----><!----><!----><!----><!----><!----><!----><!----><!----><!----><!----><!----><!----><!---->
                                <g>
                                    <path data-v-906665da=""
                                        d="M2.96111 29.4755V34.6985L3.73125 50.3533C3.73125 50.3533 3.80126 57.9847 3.73125 63.8378C3.86644 68.6771 4.40507 73.4967 5.34154 78.2464C5.34154 78.2464 6.88183 84.0295 7.73598 83.7214C8.59014 83.4134 8.73016 80.1788 8.73016 80.1788L12.5949 61.2193L14.9053 46.1806L16.4036 32.29"
                                        fill="#DEE1E9"></path>
                                    <path data-v-906665da=""
                                        d="M21.3046 4.32694L19.4562 25.9189C18.6652 28.4693 17.469 30.8758 15.9136 33.0462C15.4342 33.7616 14.8149 34.3724 14.0929 34.8417C13.3708 35.311 12.5612 35.6291 11.7128 35.7767C6.7839 36.2388 5.7057 34.0824 3.24125 30.0776C0.776802 26.0729 1.42092 11.7343 1.42092 11.7343L2.03703 2.4786C2.03703 2.4786 1.883 1.45642 6.8119 1.3584C10.6809 1.37518 14.5446 1.64649 18.378 2.17055C18.378 2.17055 21.4306 2.85667 21.3046 4.32694Z"
                                        fill="white" stroke="#DEE1E9" stroke-miterlimit="10"></path>
                                </g>
                            </g>
                        
</svg>