<?xml version="1.0" encoding="UTF-8"?>
<svg xmlns="http://www.w3.org/2000/svg" x="0px" y="0px" viewBox="0 0 55 100" width="55">

                            <rect data-v-906665da="" fill="rgba(255, 222, 232, 0.5)" class="gum" rx="5" ry="5"
                                width="55" height="70"></rect>
                            <g data-v-906665da="" title="" class="tooth-wrap">
                                <!----><!----><!----><!----><!----><!----><!----><!----><!----><!----><!----><!----><!----><!----><!----><!----><!----><!----><!----><!----><!----><!----><!----><!----><!----><!----><!----><!----><!----><!---->
                                <g>
                                    <path data-v-906665da=""
                                        d="M27.1306 40.8471L22.6218 79.0881L18.155 94.3089C18.155 94.3089 14.9064 101.31 13.5201 96.4093C12.1339 91.5084 10.4116 79.0881 10.4116 79.0881L8.87128 65.7297C8.87128 65.7297 8.87128 43.3256 4.85254 37.4445"
                                        fill="#DEE1E9"></path>
                                    <path data-v-906665da=""
                                        d="M12.106 1.90605L2.55622 13.5982C2.55622 13.5982 -1.64454 29.3231 5.79082 38.8028C13.2262 48.2825 20.8996 45.0479 20.8996 45.0479C20.8996 45.0479 27.0607 44.0818 30.4493 34.8821C33.8379 25.6824 29.3711 11.7499 29.3711 11.7499L23.364 6.5129L15.6206 1.90605C15.6206 1.90605 13.0721 0.673829 12.106 1.90605Z"
                                        fill="white" stroke="#DEE1E9" stroke-linecap="round" stroke-linejoin="bevel">
                                    </path>
                                </g>
                            </g>
                        
</svg>