<?xml version="1.0" encoding="UTF-8"?>
<svg xmlns="http://www.w3.org/2000/svg" x="0px" y="0px" viewBox="0 0 55 100" width="55">

                            <rect data-v-906665da="" fill="rgba(255, 222, 232, 0.5)" class="gum" rx="5" ry="5"
                                width="55" height="70"></rect>
                            <g data-v-906665da="" title="" class="tooth-wrap">
                                <!----><!----><!----><!----><!----><!----><!----><!----><!----><!----><!----><!----><!----><!----><!----><!----><!----><!----><!----><!----><!----><!----><!----><!----><!----><!----><!----><!----><!----><!---->
                                <g>
                                    <path data-v-906665da=""
                                        d="M6.98131 34.9218L7.27536 47.062C8.33956 58.068 8.95567 64.8453 9.40375 69.8302C9.94985 75.9213 10.3699 80.7522 13.2264 86.3672C14.9768 89.8258 18.7435 95.7069 21.4319 95.0348C22.3981 94.7968 23.2243 93.6345 24.2325 89.7138C25.4098 84.6697 25.8391 79.48 25.5067 74.311C25.3136 67.7225 25.5334 61.1284 26.1648 54.5674C26.6193 50.4383 27.3538 46.3447 28.3632 42.3152L29.8755 35.846"
                                        fill="#DEE1E9"></path>
                                    <path data-v-906665da=""
                                        d="M34.4963 15.4862C34.4963 15.4862 33.7962 33.5215 29.8755 35.846C25.9548 38.1704 21.0819 40.9289 17.3852 40.2288C13.6047 39.1542 10.0706 37.3514 6.98131 34.9218C6.51923 34.2217 1.19825 18.2727 1.19825 18.2727C1.19825 18.2727 10.2159 -0.980772 17.8473 1.5957C25.4787 4.17217 22.4681 4.8583 34.4963 15.4862Z"
                                        fill="white" stroke="#DEE1E9" stroke-linecap="round" stroke-linejoin="bevel">
                                    </path>
                                </g>
                            </g>
                        
</svg>