<?xml version="1.0" encoding="UTF-8"?>
<svg xmlns="http://www.w3.org/2000/svg" x="0px" y="0px" viewBox="0 0 55 100" width="55">

                            <rect data-v-906665da="" fill="rgba(255, 222, 232, 0.5)" class="gum" rx="5" ry="5"
                                width="55" height="70"></rect>
                            <g data-v-906665da="" title="" class="tooth-wrap">
                                <!----><!----><!----><!----><!----><!----><!----><!----><!----><!----><!----><!----><!----><!----><!----><!----><!----><!----><!----><!----><!----><!----><!----><!----><!----><!----><!----><!----><!----><!---->
                                <g>
                                    <path data-v-906665da=""
                                        d="M5.11786 33.6901L5.38391 45.1582C6.61213 52.1536 6.99294 59.2716 6.51811 66.3581C6.07438 70.4519 6.26804 74.5898 7.09222 78.6243C7.38627 80.0246 9.20661 88.1881 11.8391 88.2161C13.6454 88.2161 15.0737 84.3654 15.5358 83.1332C16.936 79.3525 16.2639 77.07 16.684 73.1913C17.076 69.6487 17.9862 68.2344 19.6945 63.4736C21.6248 58.0496 23.1277 52.483 24.1893 46.8245L25.5896 32.5839"
                                        fill="#DEE1E9"></path>
                                    <path data-v-906665da=""
                                        d="M30.6585 13.3024C30.9806 15.2208 32.3808 24.8825 26.1217 32.0238C24.0825 34.5578 21.2934 36.3813 18.1542 37.2328C17.7762 37.3168 10.6069 38.9831 6.01402 34.5723C3.96964 32.6119 3.38154 30.3015 2.30334 25.7787C1.33339 21.6919 0.863197 17.5025 0.903084 13.3024L10.5508 2.8845C10.5508 2.8845 14.9196 -1.84836 19.5685 2.8845C24.2173 7.61737 30.6585 13.3024 30.6585 13.3024Z"
                                        fill="white" stroke="#DEE1E9" stroke-linecap="round" stroke-linejoin="bevel">
                                    </path>
                                </g>
                            </g>
                        
</svg>