<?xml version="1.0" encoding="UTF-8"?>
<svg xmlns="http://www.w3.org/2000/svg" x="0px" y="0px" viewBox="0 0 55 100" width="55">

                            <rect data-v-906665da="" fill="rgba(255, 222, 232, 0.5)" class="gum" rx="5" ry="5"
                                width="55" height="70"></rect>
                            <g data-v-906665da="" title="" class="tooth-wrap">
                                <!----><!----><!----><!----><!----><!----><!----><!----><!----><!----><!----><!----><!----><!----><!----><!----><!----><!----><!----><!----><!----><!----><!----><!----><!----><!----><!----><!----><!----><!---->
                                <g>
                                    <path data-v-906665da=""
                                        d="M4.81957 27.4425C4.96069 35.9018 5.998 44.3224 7.91414 52.5631C10.9947 65.1654 11.3028 62.1268 13.1511 67.2097C14.9994 72.2927 31.1864 84.3209 26.1035 74.6171C22.3114 67.0186 20.5049 58.5837 20.8525 50.0986C21.0065 45.3237 23.793 46.2479 23.793 46.2479C23.793 46.2479 25.6834 46.696 26.7616 50.8968C27.8267 54.2399 29.2739 57.449 31.0744 60.4605C33.2791 63.9029 36.0761 66.9274 39.3359 69.3941C44.0687 72.6427 44.7969 69.3941 44.7969 69.3941C42.6707 62.9776 41.2252 56.3554 40.4841 49.6365C39.8034 42.1333 39.8784 34.5806 40.7081 27.0924C39.3594 27.9844 37.8674 28.6381 36.2973 29.0248C34.6994 29.4431 33.045 29.6038 31.3964 29.5008C25.7954 29.1648 21.2166 27.4285 18.094 28.8147C14.9738 29.8071 11.6225 29.8071 8.50225 28.8147C7.236 28.4687 6.00346 28.0095 4.81957 27.4425Z"
                                        fill="#DEE1E9"></path>
                                    <path data-v-906665da=""
                                        d="M2.42393 22.2925L4.73435 27.3755C5.90378 27.9497 7.12218 28.4183 8.37502 28.7757C11.4953 29.7681 14.8465 29.7681 17.9668 28.7757C21.0893 27.3755 25.7242 29.1258 31.2692 29.4618C32.9178 29.5648 34.5722 29.4041 36.1701 28.9858C37.724 28.5527 39.1922 27.8565 40.5109 26.9274C40.5109 26.6333 40.5809 26.4513 40.5949 26.4093C41.6031 23.4547 43.0594 20.6262 43.2134 15.9214C43.2974 13.1209 43.4234 9.07412 40.7489 5.90954C37.8364 2.46491 33.2996 1.96082 31.3392 1.70877C29.1889 1.29762 26.9716 1.40321 24.87 2.01683C24.0159 2.32489 19.9691 3.66913 18.7229 3.41709C18.0788 3.24906 17.7707 3.03902 17.7707 3.15104C17.7707 3.26306 9.9153 -0.545645 5.58851 1.9188C1.26172 4.38326 1.58378 6.2456 0.659611 11.6366C0.238289 15.2837 0.849598 18.9758 2.42393 22.2925Z"
                                        fill="white" stroke="#DEE1E9" stroke-miterlimit="10"></path>
                                </g>
                            </g>
                        
</svg>