<?xml version="1.0" encoding="UTF-8"?>
<svg xmlns="http://www.w3.org/2000/svg" x="0px" y="0px" viewBox="0 0 55 100" width="55">

                            <rect data-v-906665da="" fill="rgba(255, 222, 232, 0.5)" class="gum" rx="5" ry="5"
                                width="55" height="70"></rect>
                            <g data-v-906665da="" title="" class="tooth-wrap">
                                <!----><!----><!----><!----><!----><!----><!----><!----><!----><!----><!----><!----><!----><!----><!----><!----><!----><!----><!----><!----><!----><!----><!----><!----><!----><!----><!----><!----><!----><!---->
                                <g>
                                    <path data-v-906665da=""
                                        d="M36.9455 4.0546C38.7849 5.50368 40.1739 7.44636 40.9502 9.65562C42.8405 15.6907 38.9478 22.93 37.5616 25.5345C37.2312 26.1173 36.9726 26.7379 36.7914 27.3829C36.3898 28.7449 36.2801 30.1763 36.4694 31.5836C36.8308 34.2476 37.402 36.879 38.1777 39.4531C39.048 42.646 39.4629 45.9459 39.4099 49.2548C39.1631 53.4088 38.1669 57.4838 36.4694 61.283C35.7132 63.2994 33.7809 68.4524 32.6187 68.2843C32.1426 68.1863 31.9465 67.1781 31.6945 64.7417C31.1764 59.4907 31.4705 57.7404 31.2324 54.9399C31.2324 54.3518 30.6163 48.1066 27.2277 43.8359C26.8575 43.2807 26.3811 42.8044 25.826 42.4343C25.2708 42.0642 24.6479 41.8076 23.9931 41.6795C23.5268 41.6033 23.0494 41.633 22.5961 41.7663C22.1429 41.8996 21.7254 42.1331 21.3746 42.4496C21.0526 42.8137 20.8565 43.3038 20.9125 45.3761C20.8783 46.667 20.9816 47.9578 21.2206 49.2268C21.8087 52.0274 22.7329 52.3494 23.685 54.9399C24.1471 56.2141 24.3011 58.8186 24.6092 64.0275C24.7632 66.702 24.7632 67.8923 24.1471 68.2283C23.531 68.5644 21.9487 67.2621 21.5286 66.8281C19.5683 64.9097 19.6103 63.2854 18.28 60.6669C16.9498 58.0485 16.4737 58.7486 13.9673 54.9679C12.6555 53.0654 11.57 51.0166 10.7327 48.8628C9.8085 46.4123 9.8365 45.1801 9.19239 40.8533C8.81551 37.3081 8.14577 33.8001 7.19002 30.3654C6.78394 29.1472 6.48989 29.0352 4.85159 25.4785C3.63337 22.846 3.01725 21.5298 2.7092 20.6616C1.61001 17.9745 1.13137 15.0739 1.30894 12.1761C1.47253 10.1181 2.05885 8.11607 3.03126 6.29501C4.0285 4.08613 5.77425 2.30071 7.96016 1.25409C9.42949 0.682344 11.0097 0.452499 12.581 0.581963C13.8532 0.580309 15.112 0.842546 16.2777 1.3521C17.958 2.15025 17.944 2.93439 19.2042 3.21444C20.0024 3.38247 20.4224 3.21444 22.9149 2.4303C25.0713 1.80019 26.1635 1.47813 26.9196 1.3521C28.5581 1.10068 30.2289 1.15289 31.8485 1.50613C33.7168 1.96359 35.4585 2.83447 36.9455 4.0546Z"
                                        fill="#DEE1E9"></path>
                                    <path data-v-906665da=""
                                        d="M2.67952 20.6336C2.94557 21.3757 3.42166 22.4259 4.30382 24.3443L10.549 26.1786C10.549 26.1786 14.5537 26.7947 17.0181 25.2684C19.4826 23.7422 24.5795 25.2684 24.5795 25.2684C24.5795 25.2684 31.6648 26.1786 33.9752 26.1786C35.5452 26.0702 37.0294 25.4221 38.176 24.3443C39.8283 21.1377 42.5728 14.9626 40.9765 9.6836C40.2136 7.43659 38.8182 5.45765 36.9578 3.98456C35.4718 2.78904 33.7338 1.94638 31.8749 1.52011C30.2562 1.15937 28.584 1.10712 26.946 1.36608C25.5925 1.6525 24.2556 2.01243 22.9412 2.44427C20.4488 3.1724 20.0287 3.39645 19.2305 3.21441C17.9703 2.93436 17.9703 2.16422 16.304 1.36608C15.1403 0.850136 13.8802 0.58761 12.6073 0.595931C11.0401 0.441626 9.45851 0.652514 7.9865 1.21205C5.74231 2.24414 3.94347 4.04795 2.91757 6.29497C1.96688 8.11798 1.39079 10.1129 1.22326 12.162C1.06455 15.0595 1.56236 17.9554 2.67952 20.6336Z"
                                        fill="white" stroke="#DEE1E9" stroke-miterlimit="10"></path>
                                </g>
                            </g>
                        
</svg>