<?xml version="1.0" encoding="UTF-8"?>
<svg xmlns="http://www.w3.org/2000/svg" x="0px" y="0px" viewBox="0 0 55 100" width="55">

                            <rect data-v-906665da="" fill="rgba(255, 222, 232, 0.5)" class="gum" rx="5" ry="5"
                                width="55" height="70"></rect>
                            <g data-v-906665da="" title="" class="tooth-wrap">
                                <!----><!----><!----><!----><!----><!----><!----><!----><!----><!----><!----><!----><!----><!----><!----><!----><!----><!----><!----><!----><!----><!----><!----><!----><!----><!----><!----><!----><!----><!---->
                                <g>
                                    <path data-v-906665da=""
                                        d="M38.2777 8.67577C40.3337 11.292 41.5667 14.4597 41.8203 17.7774C42.1004 21.9782 40.4201 22.7203 39.832 27.2572C39.762 27.7473 39.706 28.2794 39.6639 28.8815C39.3419 33.3203 40.4201 33.4463 40.126 38.2772C39.804 43.5701 38.4877 43.6542 38.1237 48.457C37.8576 51.9717 38.4037 55.0662 39.5239 61.2554C39.8971 64.6852 39.8971 68.1454 39.5239 71.5753C39.5239 72.0654 39.3839 73.3676 38.5998 73.7317C37.8156 74.0957 36.9895 73.0175 35.6732 73.2696C34.609 73.4796 34.511 74.3338 33.3628 74.8099C32.2877 75.1442 31.1275 75.0745 30.1002 74.6138C27.7634 73.7658 25.6915 72.3169 24.0931 70.4131C19.3462 64.812 17.5539 66.3523 13.6052 61.4794C9.97853 56.9846 8.85832 52.3638 7.44406 46.5247C5.88977 40.0695 7.03798 40.1535 5.28767 32.9562C4.04144 27.8033 3.11727 26.389 1.89905 20.4659C0.82085 15.257 0.302757 12.5965 1.12891 10.146C3.11727 4.19495 9.53045 2.09457 9.90851 1.96854C11.4488 1.49246 15.0755 0.358249 17.7779 2.12257C19.7243 3.28478 19.7243 5.04911 21.3206 5.28715C23.1829 5.5672 23.813 3.25678 26.5576 2.66867C28.5879 2.23459 30.3242 3.06074 32.4246 4.06893C34.693 5.15176 36.6922 6.72533 38.2777 8.67577Z"
                                        fill="#DEE1E9"></path>
                                    <path data-v-906665da=""
                                        d="M1.9332 20.3981C3.15142 26.3492 4.07559 27.7495 5.32182 32.8884L7.18416 33.7286C9.46416 32.9001 11.9527 32.8411 14.2695 33.5605C18.5822 34.6948 17.6581 29.4998 24.6033 32.2723C31.5486 35.0448 33.9991 32.2723 33.9991 32.2723L39.7121 28.8837C39.7121 28.2816 39.8101 27.7495 39.8801 27.2594C40.5242 22.7226 42.1485 21.9244 41.8685 17.7797C41.6612 14.8625 40.6801 12.0532 39.0261 9.64126C37.3722 7.22929 35.1053 5.30176 32.4588 4.05716C30.3724 3.06298 28.6361 2.23682 26.6057 2.6569C23.8052 3.24501 23.2171 5.55543 21.3547 5.27538C19.7725 5.03733 19.7164 3.27301 17.8121 2.04078C15.1096 0.276463 11.4969 1.41067 9.95666 1.88676C9.56459 2.01278 3.16542 4.11317 1.16306 10.0643C0.33691 12.5287 0.855003 15.1472 1.9332 20.3981Z"
                                        fill="white" stroke="#DEE1E9" stroke-miterlimit="10"></path>
                                </g>
                            </g>
                        
</svg>