<?xml version="1.0" encoding="UTF-8"?>
<svg xmlns="http://www.w3.org/2000/svg" x="0px" y="0px" viewBox="0 0 55 100" width="55">

                            <rect data-v-906665da="" fill="rgba(255, 222, 232, 0.5)" class="gum" rx="5" ry="5"
                                width="55" height="70"></rect>
                            <g data-v-906665da="" title="" class="tooth-wrap">
                                <!----><!----><!----><!----><!----><!----><!----><!----><!----><!----><!----><!----><!----><!----><!----><!----><!----><!----><!----><!----><!----><!----><!----><!----><!----><!----><!----><!----><!----><!---->
                                <g>
                                    <path data-v-906665da=""
                                        d="M4.22314 32.9841L5.30134 48.9891C5.30134 48.9891 6.46355 58.5948 8.10185 74.3197C9.74015 90.0446 11.9246 83.5614 11.9246 83.5614L14.347 71.7712L16.2233 50.6134L17.4836 30.5617"
                                        fill="#DEE1E9"></path>
                                    <path data-v-906665da=""
                                        d="M0.554688 1.36631V9.92187L1.95494 26.0948C2.13713 28.542 2.91596 30.9074 4.22336 32.9841C5.02239 34.172 6.1117 35.136 7.38794 35.7846C12.4709 38.3331 15.0193 34.2863 15.0193 34.2863C15.9711 33.1141 16.8147 31.8581 17.5398 30.5336C18.5253 28.8104 19.3055 26.9775 19.8642 25.0726C21.4885 19.4716 20.4523 12.1203 20.7884 3.69073C20.8779 2.97473 20.6876 2.25179 20.2572 1.67265C19.8267 1.09351 19.1894 0.702866 18.478 0.582166C18.478 0.582166 0.554688 0.428137 0.554688 1.36631Z"
                                        fill="white" stroke="#DEE1E9" stroke-linecap="round" stroke-linejoin="round">
                                    </path>
                                </g>
                            </g>
                        
</svg>