<?xml version="1.0" encoding="UTF-8"?>
<svg xmlns="http://www.w3.org/2000/svg" x="0px" y="0px" viewBox="0 0 55 100" width="55">

                            <rect data-v-906665da="" fill="rgba(255, 222, 232, 0.5)" class="gum" rx="5" ry="5"
                                width="55" height="70"></rect>
                            <g data-v-906665da="" title="" class="tooth-wrap">
                                <!----><!----><!----><!----><!----><!----><!----><!----><!----><!----><!----><!----><!----><!----><!----><!----><!----><!----><!----><!----><!----><!----><!----><!----><!----><!----><!----><!----><!----><!---->
                                <g>
                                    <path data-v-906665da=""
                                        d="M19.7071 28.6899V33.9128L18.937 49.5677C18.937 49.5677 18.867 57.1991 18.937 63.0522C18.8018 67.8915 18.2631 72.711 17.3267 77.4608C17.3267 77.4608 15.7864 83.2438 14.9322 82.9358C14.0781 82.6277 13.938 79.3931 13.938 79.3931L10.0733 60.4337L7.76292 45.3949L6.26465 31.5044"
                                        fill="#DEE1E9"></path>
                                    <path data-v-906665da=""
                                        d="M1.36366 3.5413L3.212 25.1332C4.00303 27.6836 5.19919 30.0901 6.75465 32.2605C7.23397 32.9759 7.85335 33.5867 8.57536 34.056C9.29737 34.5254 10.107 34.8434 10.9554 34.991C15.8843 35.4531 16.9625 33.2967 19.427 29.292C21.8914 25.2873 21.2473 10.9486 21.2473 10.9486L20.6312 1.69296C20.6312 1.69296 20.7852 0.670772 15.8563 0.572754C11.9873 0.58954 8.12358 0.860842 4.2902 1.3849C4.2902 1.3849 1.23764 2.07103 1.36366 3.5413Z"
                                        fill="white" stroke="#DEE1E9" stroke-miterlimit="10"></path>
                                </g>
                            </g>
                        
</svg>