<?xml version="1.0" encoding="UTF-8"?>
<svg xmlns="http://www.w3.org/2000/svg" x="0px" y="0px" viewBox="0 0 55 100" width="55">

                            <rect data-v-906665da="" fill="rgba(255, 222, 232, 0.5)" class="gum" rx="5" ry="5"
                                width="55" height="70"></rect>
                            <g data-v-906665da="" title="" class="tooth-wrap">
                                <!----><!----><!----><!----><!----><!----><!----><!----><!----><!----><!----><!----><!----><!----><!----><!----><!----><!----><!----><!----><!----><!----><!----><!----><!----><!----><!----><!----><!----><!---->
                                <g>
                                    <path data-v-906665da=""
                                        d="M5.14893 40.4873L9.65775 78.7283L14.1246 93.949C14.1246 93.949 17.3732 100.95 18.7594 96.0494C20.1457 91.1485 21.868 78.7283 21.868 78.7283L23.4083 65.3698C23.4083 65.3698 23.4083 42.9657 27.427 37.0847"
                                        fill="#DEE1E9"></path>
                                    <path data-v-906665da=""
                                        d="M20.1736 1.54619L29.7233 13.2383C29.7233 13.2383 33.9241 28.9632 26.4887 38.4429C19.0534 47.9227 11.38 44.6881 11.38 44.6881C11.38 44.6881 5.21884 43.7219 1.83022 34.5222C-1.5584 25.3225 2.90842 11.39 2.90842 11.39L8.91551 6.15303L16.6589 1.54619C16.6589 1.54619 19.2074 0.313966 20.1736 1.54619Z"
                                        fill="white" stroke="#DEE1E9" stroke-linecap="round" stroke-linejoin="bevel">
                                    </path>
                                </g>
                            </g>
                        
</svg>