<?xml version="1.0" encoding="UTF-8"?>
<svg xmlns="http://www.w3.org/2000/svg" x="0px" y="0px" viewBox="0 0 55 100" width="55">

                            <rect data-v-906665da="" fill="rgba(255, 222, 232, 0.5)" class="gum" rx="5" ry="5"
                                width="55" height="70"></rect>
                            <g data-v-906665da="" title="" class="tooth-wrap">
                                <!----><!----><!----><!----><!----><!----><!----><!----><!----><!----><!----><!----><!----><!----><!----><!----><!----><!----><!----><!----><!----><!----><!----><!----><!----><!----><!----><!----><!----><!---->
                                <g>
                                    <path data-v-906665da=""
                                        d="M28.5311 35.0517L28.2371 47.1919C27.1729 58.1979 26.5568 64.9752 26.1087 69.9601C25.5626 76.0512 25.1425 80.8821 22.286 86.4971C20.5357 89.9557 16.769 95.8368 14.0805 95.1647C13.1143 94.9266 12.2882 93.7644 11.28 89.8437C10.1027 84.7996 9.67336 79.6099 10.0058 74.4409C10.1989 67.8524 9.97905 61.2583 9.34764 54.6973C8.89315 50.5681 8.15866 46.4746 7.14924 42.445L5.63696 35.9759"
                                        fill="#DEE1E9"></path>
                                    <path data-v-906665da=""
                                        d="M1.01611 15.6161C1.01611 15.6161 1.71624 33.6514 5.63696 35.9758C9.55767 38.3003 14.4306 41.0588 18.1272 40.3586C21.9077 39.2841 25.4419 37.4813 28.5311 35.0517C28.9932 34.3515 34.3142 18.4026 34.3142 18.4026C34.3142 18.4026 25.2965 -0.850889 17.6652 1.72558C10.0338 4.30205 13.0443 4.98818 1.01611 15.6161Z"
                                        fill="white" stroke="#DEE1E9" stroke-linecap="round" stroke-linejoin="bevel">
                                    </path>
                                </g>
                            </g>
                        
</svg>