<?xml version="1.0" encoding="UTF-8"?>
<svg xmlns="http://www.w3.org/2000/svg" x="0px" y="0px" viewBox="0 0 55 100" width="55">

                            <rect data-v-906665da="" fill="rgba(255, 222, 232, 0.5)" class="gum" rx="5" ry="5"
                                width="55" height="70"></rect>
                            <g data-v-906665da="" title="" class="tooth-wrap">
                                <!----><!----><!----><!----><!----><!----><!----><!----><!----><!----><!----><!----><!----><!----><!----><!----><!----><!----><!----><!----><!----><!----><!----><!----><!----><!----><!----><!----><!----><!---->
                                <g>
                                    <path data-v-906665da=""
                                        d="M27.2418 33.5084L26.9757 44.9765C25.7475 51.9719 25.3667 59.0898 25.8415 66.1763C26.2852 70.2702 26.0916 74.4081 25.2674 78.4426C24.9733 79.8428 23.153 88.0063 20.5205 88.0343C18.7142 88.0343 17.2859 84.1836 16.8239 82.9514C15.4236 79.1707 16.0957 76.8883 15.6756 73.0096C15.2836 69.4669 14.3734 68.0527 12.6651 63.2918C10.7348 57.8679 9.23191 52.3012 8.17028 46.6428L6.77002 32.4022"
                                        fill="#DEE1E9"></path>
                                    <path data-v-906665da=""
                                        d="M1.7011 13.1206C1.37904 15.039 -0.0212154 24.7008 6.23793 31.8421C8.27714 34.3761 11.0662 36.1995 14.2054 37.051C14.5835 37.135 21.7528 38.8013 26.3456 34.3905C28.39 32.4302 28.9781 30.1197 30.0563 25.5969C31.0262 21.5102 31.4964 17.3207 31.4565 13.1206L21.8088 2.70274C21.8088 2.70274 17.44 -2.03013 12.7911 2.70274C8.14228 7.4356 1.7011 13.1206 1.7011 13.1206Z"
                                        fill="white" stroke="#DEE1E9" stroke-linecap="round" stroke-linejoin="bevel">
                                    </path>
                                </g>
                            </g>
                        
</svg>