<?xml version="1.0" encoding="UTF-8"?>
<svg xmlns="http://www.w3.org/2000/svg" x="0px" y="0px" viewBox="0 0 55 100" width="55">

                            <rect data-v-906665da="" fill="rgba(255, 222, 232, 0.5)" class="gum" rx="5" ry="5"
                                width="55" height="70"></rect>
                            <g data-v-906665da="" title="" class="tooth-wrap">
                                <!----><!----><!----><!----><!----><!----><!----><!----><!----><!----><!----><!----><!----><!----><!----><!----><!----><!----><!----><!----><!----><!----><!----><!----><!----><!----><!----><!----><!----><!---->
                                <g>
                                    <path data-v-906665da=""
                                        d="M40.5808 27.317C40.4397 35.7763 39.4024 44.1969 37.4863 52.4376C34.4057 65.0399 34.0976 62.0013 32.2493 67.0843C30.401 72.1672 14.214 84.1954 19.2969 74.4916C23.089 66.8931 24.8955 58.4582 24.5479 49.9731C24.3939 45.1982 21.6074 46.1224 21.6074 46.1224C21.6074 46.1224 19.717 46.5705 18.6388 50.7713C17.5737 54.1144 16.1265 57.3235 14.326 60.335C12.1213 63.7774 9.32426 66.802 6.06451 69.2686C1.33165 72.5172 0.603516 69.2686 0.603516 69.2686C2.72969 62.8522 4.17523 56.2299 4.9163 49.511C5.597 42.0078 5.52194 34.4551 4.69226 26.9669C6.04099 27.8589 7.53297 28.5126 9.10307 28.8993C10.701 29.3176 12.3554 29.4783 14.004 29.3754C19.605 29.0393 24.1838 27.303 27.3064 28.6892C30.4266 29.6817 33.7779 29.6817 36.8981 28.6892C38.1644 28.3433 39.3969 27.884 40.5808 27.317Z"
                                        fill="#DEE1E9"></path>
                                    <path data-v-906665da=""
                                        d="M42.9765 22.167L40.666 27.25C39.4966 27.8242 38.2782 28.2928 37.0254 28.6502C33.9051 29.6427 30.5539 29.6427 27.4336 28.6502C24.311 27.25 19.6762 29.0003 14.1312 29.3363C12.4826 29.4393 10.8282 29.2786 9.23029 28.8603C7.67637 28.4272 6.20817 27.731 4.8895 26.8019C4.8895 26.5078 4.81949 26.3258 4.80548 26.2838C3.7973 23.3293 2.34103 20.5007 2.187 15.7959C2.10299 12.9954 1.97697 8.94863 4.65145 5.78405C7.56399 2.33942 12.1008 1.83533 14.0612 1.58329C16.2115 1.17213 18.4288 1.27772 20.5304 1.89134C21.3845 2.1994 25.4313 3.54365 26.6775 3.2916C27.3216 3.12357 27.6297 2.91353 27.6297 3.02555C27.6297 3.13757 35.4851 -0.671134 39.8119 1.79332C44.1387 4.25777 43.8166 6.12011 44.7408 11.5111C45.1621 15.1582 44.5508 18.8503 42.9765 22.167Z"
                                        fill="white" stroke="#DEE1E9" stroke-miterlimit="10"></path>
                                </g>
                            </g>
                        
</svg>