<?xml version="1.0" encoding="UTF-8"?>
<svg xmlns="http://www.w3.org/2000/svg" x="0px" y="0px" viewBox="0 0 55 100" width="55">

                            <rect data-v-906665da="" fill="rgba(255, 222, 232, 0.5)" class="gum" rx="5" ry="5"
                                width="55" height="70"></rect>
                            <g data-v-906665da="" title="" class="tooth-wrap">
                                <!----><!----><!----><!----><!----><!----><!----><!----><!----><!----><!----><!----><!----><!----><!----><!----><!----><!----><!----><!----><!----><!----><!----><!----><!----><!----><!----><!----><!----><!---->
                                <g>
                                    <path data-v-906665da=""
                                        d="M5.71201 4.8085C3.87257 6.25758 2.48354 8.20027 1.70728 10.4095C-0.183066 16.4446 3.70965 23.684 5.0959 26.2884C5.42623 26.8712 5.68483 27.4918 5.86604 28.1368C6.26762 29.4988 6.37736 30.9302 6.1881 32.3375C5.82669 35.0016 5.25548 37.6329 4.47979 40.207C3.60944 43.3999 3.1946 46.6998 3.24756 50.0088C3.49437 54.1627 4.49059 58.2377 6.1881 62.037C6.94424 64.0533 8.87659 69.2063 10.0388 69.0382C10.5149 68.9402 10.7109 67.932 10.963 65.4956C11.4811 60.2446 11.187 58.4943 11.4251 55.6938C11.4251 55.1057 12.0412 48.8605 15.4298 44.5898C15.7999 44.0346 16.2763 43.5583 16.8315 43.1882C17.3867 42.8181 18.0096 42.5616 18.6644 42.4334C19.1307 42.3572 19.6081 42.3869 20.0613 42.5202C20.5146 42.6535 20.9321 42.887 21.2829 43.2035C21.6049 43.5676 21.801 44.0577 21.7449 46.13C21.7791 47.4209 21.6759 48.7117 21.4369 49.9808C20.8488 52.7813 19.9246 53.1033 18.9724 55.6938C18.5103 56.968 18.3563 59.5725 18.0483 64.7815C17.8942 67.4559 17.8942 68.6462 18.5103 68.9822C19.1265 69.3183 20.7088 68.016 21.1288 67.582C23.0892 65.6636 23.0472 64.0393 24.3774 61.4208C25.7077 58.8024 26.1838 59.5025 28.6902 55.7218C30.0019 53.8193 31.0874 51.7705 31.9248 49.6167C32.849 47.1662 32.821 45.934 33.4651 41.6072C33.842 38.062 34.5117 34.554 35.4675 31.1193C35.8735 29.9011 36.1676 29.7891 37.8059 26.2324C39.0241 23.5999 39.6402 22.2837 39.9483 21.4155C41.0475 18.7284 41.5261 15.8278 41.3485 12.93C41.1849 10.8721 40.5986 8.86998 39.6262 7.04891C38.629 4.84003 36.8832 3.05462 34.6973 2.00799C33.228 1.43625 31.6478 1.20641 30.0765 1.33587C28.8042 1.33422 27.5455 1.59645 26.3798 2.10601C24.6995 2.90416 24.7135 3.6883 23.4533 3.96835C22.6551 4.13638 22.235 3.96835 19.7426 3.18421C17.5862 2.55409 16.494 2.23203 15.7378 2.10601C14.0993 1.85458 12.4286 1.9068 10.8089 2.26004C8.9407 2.71749 7.19892 3.58838 5.71201 4.8085Z"
                                        fill="#DEE1E9"></path>
                                    <path data-v-906665da=""
                                        d="M39.9779 21.3875C39.7119 22.1296 39.2358 23.1798 38.3536 25.0982L32.1085 26.9325C32.1085 26.9325 28.1038 27.5486 25.6393 26.0223C23.1749 24.4961 18.0779 26.0223 18.0779 26.0223C18.0779 26.0223 10.9927 26.9325 8.68223 26.9325C7.11226 26.8241 5.62811 26.176 4.48146 25.0982C2.82916 21.8916 0.0846571 15.7165 1.68095 10.4375C2.44383 8.1905 3.8393 6.21156 5.69968 4.73846C7.18568 3.54294 8.92365 2.70029 10.7826 2.27401C12.4013 1.91328 14.0735 1.86102 15.7115 2.11998C17.065 2.40641 18.4019 2.76634 19.7162 3.19817C22.2087 3.92631 22.6288 4.15035 23.4269 3.96832C24.6872 3.68827 24.6872 2.91813 26.3535 2.11998C27.5171 1.60404 28.7772 1.34152 30.0501 1.34984C31.6173 1.19553 33.199 1.40642 34.671 1.96595C36.9152 2.99805 38.714 4.80185 39.7399 7.04888C40.6906 8.87189 41.2667 10.8668 41.4342 12.916C41.5929 15.8134 41.0951 18.7093 39.9779 21.3875Z"
                                        fill="white" stroke="#DEE1E9" stroke-miterlimit="10"></path>
                                </g>
                            </g>
                        
</svg>