<?xml version="1.0" encoding="UTF-8"?>
<svg xmlns="http://www.w3.org/2000/svg" x="0px" y="0px" viewBox="0 0 55 100" width="55">

                            <rect data-v-906665da="" fill="rgba(255, 222, 232, 0.5)" class="gum" rx="5" ry="5"
                                width="55" height="70"></rect>
                            <g data-v-906665da="" title="" class="tooth-wrap">
                                <!----><!----><!----><!----><!----><!----><!----><!----><!----><!----><!----><!----><!----><!----><!----><!----><!----><!----><!----><!----><!----><!----><!----><!----><!----><!----><!----><!----><!----><!---->
                                <g>
                                    <path data-v-906665da=""
                                        d="M4.80678 8.68199C2.75077 11.2982 1.51779 14.4659 1.26413 17.7837C0.984082 21.9844 2.66439 22.7266 3.25249 27.2634C3.32251 27.7535 3.37852 28.2856 3.42053 28.8877C3.74259 33.3265 2.66439 33.4525 2.95844 38.2834C3.2805 43.5764 4.59674 43.6604 4.96081 48.4633C5.22686 51.9779 4.68076 55.0725 3.56055 61.2616C3.18739 64.6914 3.18739 68.1516 3.56055 71.5815C3.56055 72.0716 3.70058 73.3738 4.48472 73.7379C5.26886 74.102 6.09502 73.0238 7.41126 73.2758C8.47545 73.4858 8.57347 74.34 9.72168 74.8161C10.7968 75.1504 11.9569 75.0807 12.9843 74.62C15.321 73.7721 17.393 72.3231 18.9914 70.4193C23.7382 64.8183 25.5306 66.3585 29.4793 61.4856C33.1059 56.9908 34.2262 52.37 35.6404 46.5309C37.1947 40.0757 36.0465 40.1597 37.7968 32.9624C39.043 27.8095 39.9672 26.3952 41.1854 20.4722C42.2636 15.2632 42.7817 12.6027 41.9556 10.1523C39.9672 4.20118 33.554 2.10079 33.176 1.97477C31.6357 1.49868 28.009 0.364475 25.3065 2.1288C23.3602 3.29101 23.3602 5.05533 21.7639 5.29338C19.9015 5.57343 19.2714 3.263 16.5269 2.6749C14.4966 2.24082 12.7602 3.06697 10.6598 4.07515C8.3915 5.15799 6.39225 6.73156 4.80678 8.68199Z"
                                        fill="#DEE1E9"></path>
                                    <path data-v-906665da=""
                                        d="M41.1513 20.4044C39.9331 26.3555 39.0089 27.7557 37.7627 32.8946L35.9003 33.7348C33.6203 32.9063 31.1317 32.8473 28.815 33.5668C24.5022 34.701 25.4264 29.506 18.4811 32.2785C11.5359 35.051 9.08542 32.2785 9.08542 32.2785L3.37237 28.8899C3.37237 28.2878 3.27436 27.7557 3.20434 27.2656C2.56023 22.7288 0.93593 21.9306 1.21598 17.7859C1.42328 14.8687 2.40441 12.0595 4.05833 9.64748C5.71225 7.23551 7.97919 5.30799 10.6257 4.06338C12.7121 3.0692 14.4484 2.24305 16.4788 2.66313C19.2793 3.25123 19.8674 5.56165 21.7297 5.2816C23.312 5.04356 23.368 3.27924 25.2724 2.04701C27.9749 0.282688 31.5875 1.41689 33.1278 1.89298C33.5199 2.019 39.919 4.11939 41.9214 10.0705C42.7476 12.5349 42.2295 15.1534 41.1513 20.4044Z"
                                        fill="white" stroke="#DEE1E9" stroke-miterlimit="10"></path>
                                </g>
                            </g>
                        
</svg>